<mxfile host="app.diagrams.net" modified="2024-03-15T08:14:15.397Z" agent="Mozilla/5.0 (Windows NT 10.0; Win64; x64; rv:123.0) Gecko/20100101 Firefox/123.0" etag="shLpesedXlcdB_JCv0cT" version="23.1.5" type="device" pages="2">
  <diagram id="bmUtKvqkMdFwcfF1v2Oj" name="ER diagram">
    <mxGraphModel dx="5644" dy="5921" grid="1" gridSize="10" guides="1" tooltips="1" connect="1" arrows="1" fold="1" page="1" pageScale="1" pageWidth="3300" pageHeight="4681" math="0" shadow="0">
      <root>
        <mxCell id="0" />
        <mxCell id="1" parent="0" />
        <mxCell id="Yb8myrwH-e1HCDACNnJ4-1" value="Employee" style="whiteSpace=wrap;html=1;align=center;" parent="1" vertex="1">
          <mxGeometry x="-15" y="-580" width="100" height="40" as="geometry" />
        </mxCell>
        <mxCell id="Yb8myrwH-e1HCDACNnJ4-2" value="EGender" style="ellipse;whiteSpace=wrap;html=1;align=center;" parent="1" vertex="1">
          <mxGeometry x="-40" y="-700" width="60" height="40" as="geometry" />
        </mxCell>
        <mxCell id="Yb8myrwH-e1HCDACNnJ4-3" value="&lt;u&gt;ECode&lt;/u&gt;" style="ellipse;whiteSpace=wrap;html=1;align=center;" parent="1" vertex="1">
          <mxGeometry x="40" y="-700" width="65" height="40" as="geometry" />
        </mxCell>
        <mxCell id="Yb8myrwH-e1HCDACNnJ4-4" value="EDoB" style="ellipse;whiteSpace=wrap;html=1;align=center;" parent="1" vertex="1">
          <mxGeometry x="192.5" y="-640" width="65" height="40" as="geometry" />
        </mxCell>
        <mxCell id="Yb8myrwH-e1HCDACNnJ4-5" value="&lt;div&gt;EFName&lt;/div&gt;" style="ellipse;whiteSpace=wrap;html=1;align=center;" parent="1" vertex="1">
          <mxGeometry x="115" y="-700" width="60" height="40" as="geometry" />
        </mxCell>
        <mxCell id="Yb8myrwH-e1HCDACNnJ4-6" value="" style="endArrow=none;html=1;rounded=0;entryX=0;entryY=1;entryDx=0;entryDy=0;exitX=0.5;exitY=0;exitDx=0;exitDy=0;" parent="1" source="Yb8myrwH-e1HCDACNnJ4-1" target="Yb8myrwH-e1HCDACNnJ4-5" edge="1">
          <mxGeometry relative="1" as="geometry">
            <mxPoint x="-10" y="-440" as="sourcePoint" />
            <mxPoint x="150" y="-440" as="targetPoint" />
          </mxGeometry>
        </mxCell>
        <mxCell id="Yb8myrwH-e1HCDACNnJ4-7" value="" style="endArrow=none;html=1;rounded=0;entryX=0.5;entryY=1;entryDx=0;entryDy=0;exitX=0.5;exitY=0;exitDx=0;exitDy=0;" parent="1" source="Yb8myrwH-e1HCDACNnJ4-1" target="Yb8myrwH-e1HCDACNnJ4-4" edge="1">
          <mxGeometry relative="1" as="geometry">
            <mxPoint x="40" y="-580" as="sourcePoint" />
            <mxPoint x="144" y="-596" as="targetPoint" />
          </mxGeometry>
        </mxCell>
        <mxCell id="Yb8myrwH-e1HCDACNnJ4-8" value="" style="endArrow=none;html=1;rounded=0;entryX=0.5;entryY=1;entryDx=0;entryDy=0;exitX=0.5;exitY=0;exitDx=0;exitDy=0;" parent="1" source="Yb8myrwH-e1HCDACNnJ4-1" target="Yb8myrwH-e1HCDACNnJ4-3" edge="1">
          <mxGeometry relative="1" as="geometry">
            <mxPoint x="175" y="-620" as="sourcePoint" />
            <mxPoint x="240" y="-640" as="targetPoint" />
          </mxGeometry>
        </mxCell>
        <mxCell id="Yb8myrwH-e1HCDACNnJ4-9" value="EAddress" style="ellipse;whiteSpace=wrap;html=1;align=center;" parent="1" vertex="1">
          <mxGeometry x="-120" y="-700" width="60" height="40" as="geometry" />
        </mxCell>
        <mxCell id="Yb8myrwH-e1HCDACNnJ4-10" value="EStartDate" style="ellipse;whiteSpace=wrap;html=1;align=center;" parent="1" vertex="1">
          <mxGeometry x="-200" y="-700" width="60" height="40" as="geometry" />
        </mxCell>
        <mxCell id="Yb8myrwH-e1HCDACNnJ4-11" value="" style="endArrow=none;html=1;rounded=0;entryX=0.5;entryY=1;entryDx=0;entryDy=0;exitX=0.5;exitY=0;exitDx=0;exitDy=0;" parent="1" source="Yb8myrwH-e1HCDACNnJ4-1" edge="1">
          <mxGeometry relative="1" as="geometry">
            <mxPoint x="-53" y="-580" as="sourcePoint" />
            <mxPoint x="-15" y="-660" as="targetPoint" />
          </mxGeometry>
        </mxCell>
        <mxCell id="Yb8myrwH-e1HCDACNnJ4-12" value="" style="endArrow=none;html=1;rounded=0;entryX=0.5;entryY=1;entryDx=0;entryDy=0;exitX=0.5;exitY=0;exitDx=0;exitDy=0;" parent="1" source="Yb8myrwH-e1HCDACNnJ4-1" target="Yb8myrwH-e1HCDACNnJ4-9" edge="1">
          <mxGeometry relative="1" as="geometry">
            <mxPoint x="40" y="-580" as="sourcePoint" />
            <mxPoint x="93" y="-640" as="targetPoint" />
          </mxGeometry>
        </mxCell>
        <mxCell id="Yb8myrwH-e1HCDACNnJ4-13" value="" style="endArrow=none;html=1;rounded=0;entryX=0.5;entryY=1;entryDx=0;entryDy=0;exitX=0.5;exitY=0;exitDx=0;exitDy=0;" parent="1" source="Yb8myrwH-e1HCDACNnJ4-1" target="Yb8myrwH-e1HCDACNnJ4-10" edge="1">
          <mxGeometry relative="1" as="geometry">
            <mxPoint x="-40" y="-570" as="sourcePoint" />
            <mxPoint x="-170" y="-650" as="targetPoint" />
          </mxGeometry>
        </mxCell>
        <mxCell id="Yb8myrwH-e1HCDACNnJ4-14" value="Specialty" style="ellipse;whiteSpace=wrap;html=1;align=center;" parent="1" vertex="1">
          <mxGeometry x="-80" y="-500" width="60" height="40" as="geometry" />
        </mxCell>
        <mxCell id="Yb8myrwH-e1HCDACNnJ4-15" value="" style="endArrow=none;html=1;rounded=0;exitX=0;exitY=0.5;exitDx=0;exitDy=0;entryX=1;entryY=0.5;entryDx=0;entryDy=0;" parent="1" source="Yb8myrwH-e1HCDACNnJ4-1" target="Yb8myrwH-e1HCDACNnJ4-163" edge="1">
          <mxGeometry relative="1" as="geometry">
            <mxPoint x="60" y="-560" as="sourcePoint" />
            <mxPoint x="-142.99522245753292" y="-601.2887814379139" as="targetPoint" />
          </mxGeometry>
        </mxCell>
        <mxCell id="Yb8myrwH-e1HCDACNnJ4-16" value="" style="endArrow=none;html=1;rounded=0;entryX=0.5;entryY=0;entryDx=0;entryDy=0;exitX=0;exitY=0.5;exitDx=0;exitDy=0;" parent="1" source="Yb8myrwH-e1HCDACNnJ4-1" target="Yb8myrwH-e1HCDACNnJ4-14" edge="1">
          <mxGeometry relative="1" as="geometry">
            <mxPoint x="70" y="-550" as="sourcePoint" />
            <mxPoint x="-60" y="-630" as="targetPoint" />
          </mxGeometry>
        </mxCell>
        <mxCell id="Yb8myrwH-e1HCDACNnJ4-17" value="EdegreeDate" style="ellipse;whiteSpace=wrap;html=1;align=center;shadow=0;" parent="1" vertex="1">
          <mxGeometry x="-210" y="-570" width="80" height="50" as="geometry" />
        </mxCell>
        <mxCell id="Yb8myrwH-e1HCDACNnJ4-18" style="rounded=0;orthogonalLoop=1;jettySize=auto;html=1;exitX=0.5;exitY=1;exitDx=0;exitDy=0;entryX=0.5;entryY=0;entryDx=0;entryDy=0;endArrow=none;endFill=0;" parent="1" source="Yb8myrwH-e1HCDACNnJ4-19" target="Yb8myrwH-e1HCDACNnJ4-70" edge="1">
          <mxGeometry relative="1" as="geometry" />
        </mxCell>
        <mxCell id="Yb8myrwH-e1HCDACNnJ4-19" value="Nurse" style="whiteSpace=wrap;html=1;align=center;" parent="1" vertex="1">
          <mxGeometry x="-338" y="-350" width="100" height="40" as="geometry" />
        </mxCell>
        <mxCell id="Yb8myrwH-e1HCDACNnJ4-20" value="Doctor" style="whiteSpace=wrap;html=1;align=center;" parent="1" vertex="1">
          <mxGeometry x="-15" y="-350" width="100" height="40" as="geometry" />
        </mxCell>
        <mxCell id="Yb8myrwH-e1HCDACNnJ4-21" value="D" style="ellipse;whiteSpace=wrap;html=1;aspect=fixed;" parent="1" vertex="1">
          <mxGeometry x="20" y="-450" width="30" height="30" as="geometry" />
        </mxCell>
        <mxCell id="Yb8myrwH-e1HCDACNnJ4-22" value="" style="endArrow=none;html=1;rounded=0;entryX=0.5;entryY=0;entryDx=0;entryDy=0;exitX=0;exitY=0.5;exitDx=0;exitDy=0;" parent="1" source="Yb8myrwH-e1HCDACNnJ4-21" target="Yb8myrwH-e1HCDACNnJ4-19" edge="1">
          <mxGeometry relative="1" as="geometry">
            <mxPoint x="-218" y="-400" as="sourcePoint" />
            <mxPoint x="-248" y="-360" as="targetPoint" />
            <Array as="points">
              <mxPoint x="-290" y="-435" />
            </Array>
          </mxGeometry>
        </mxCell>
        <mxCell id="Yb8myrwH-e1HCDACNnJ4-23" value="" style="endArrow=none;html=1;rounded=0;exitX=0.5;exitY=1;exitDx=0;exitDy=0;entryX=0.5;entryY=0;entryDx=0;entryDy=0;" parent="1" source="Yb8myrwH-e1HCDACNnJ4-21" target="Yb8myrwH-e1HCDACNnJ4-20" edge="1">
          <mxGeometry relative="1" as="geometry">
            <mxPoint x="-208" y="-508" as="sourcePoint" />
            <mxPoint x="-60" y="-380" as="targetPoint" />
          </mxGeometry>
        </mxCell>
        <mxCell id="Yb8myrwH-e1HCDACNnJ4-24" value="Department" style="whiteSpace=wrap;html=1;align=center;" parent="1" vertex="1">
          <mxGeometry x="290" y="-580" width="100" height="40" as="geometry" />
        </mxCell>
        <mxCell id="Yb8myrwH-e1HCDACNnJ4-25" value="1" style="rounded=0;orthogonalLoop=1;jettySize=auto;html=1;exitX=1;exitY=0.5;exitDx=0;exitDy=0;entryX=0;entryY=0.5;entryDx=0;entryDy=0;shape=link;" parent="1" source="Yb8myrwH-e1HCDACNnJ4-26" target="Yb8myrwH-e1HCDACNnJ4-24" edge="1">
          <mxGeometry x="-0.7143" y="10" relative="1" as="geometry">
            <mxPoint as="offset" />
          </mxGeometry>
        </mxCell>
        <mxCell id="Yb8myrwH-e1HCDACNnJ4-26" value="work for" style="shape=rhombus;perimeter=rhombusPerimeter;whiteSpace=wrap;html=1;align=center;" parent="1" vertex="1">
          <mxGeometry x="135" y="-590" width="120" height="60" as="geometry" />
        </mxCell>
        <mxCell id="Yb8myrwH-e1HCDACNnJ4-27" value="" style="shape=link;html=1;rounded=0;exitX=1;exitY=0.5;exitDx=0;exitDy=0;entryX=0;entryY=0.5;entryDx=0;entryDy=0;" parent="1" source="Yb8myrwH-e1HCDACNnJ4-1" target="Yb8myrwH-e1HCDACNnJ4-26" edge="1">
          <mxGeometry relative="1" as="geometry">
            <mxPoint x="115" y="-500" as="sourcePoint" />
            <mxPoint x="275" y="-500" as="targetPoint" />
          </mxGeometry>
        </mxCell>
        <mxCell id="Yb8myrwH-e1HCDACNnJ4-28" value="N" style="resizable=0;html=1;whiteSpace=wrap;align=right;verticalAlign=bottom;" parent="Yb8myrwH-e1HCDACNnJ4-27" connectable="0" vertex="1">
          <mxGeometry x="1" relative="1" as="geometry" />
        </mxCell>
        <mxCell id="Yb8myrwH-e1HCDACNnJ4-29" value="&lt;u&gt;DCode&lt;/u&gt;" style="ellipse;whiteSpace=wrap;html=1;align=center;" parent="1" vertex="1">
          <mxGeometry x="270" y="-640" width="65" height="40" as="geometry" />
        </mxCell>
        <mxCell id="Yb8myrwH-e1HCDACNnJ4-30" value="is Dean of" style="shape=rhombus;perimeter=rhombusPerimeter;whiteSpace=wrap;html=1;align=center;rotation=0;" parent="1" vertex="1">
          <mxGeometry x="277.5" y="-355" width="125" height="50" as="geometry" />
        </mxCell>
        <mxCell id="Yb8myrwH-e1HCDACNnJ4-31" value="" style="endArrow=none;html=1;rounded=0;entryX=0;entryY=0.5;entryDx=0;entryDy=0;exitX=1;exitY=0.5;exitDx=0;exitDy=0;" parent="1" source="Yb8myrwH-e1HCDACNnJ4-20" target="Yb8myrwH-e1HCDACNnJ4-30" edge="1">
          <mxGeometry relative="1" as="geometry">
            <mxPoint x="-62" y="-354" as="sourcePoint" />
            <mxPoint x="12" y="-310" as="targetPoint" />
          </mxGeometry>
        </mxCell>
        <mxCell id="Yb8myrwH-e1HCDACNnJ4-32" value="" style="shape=link;html=1;rounded=0;exitX=0.5;exitY=1;exitDx=0;exitDy=0;entryX=0.5;entryY=0;entryDx=0;entryDy=0;" parent="1" source="Yb8myrwH-e1HCDACNnJ4-24" target="Yb8myrwH-e1HCDACNnJ4-30" edge="1">
          <mxGeometry relative="1" as="geometry">
            <mxPoint x="182" y="-509.18" as="sourcePoint" />
            <mxPoint x="212" y="-438" as="targetPoint" />
          </mxGeometry>
        </mxCell>
        <mxCell id="Yb8myrwH-e1HCDACNnJ4-33" value="1" style="resizable=0;html=1;whiteSpace=wrap;align=right;verticalAlign=bottom;" parent="Yb8myrwH-e1HCDACNnJ4-32" connectable="0" vertex="1">
          <mxGeometry x="1" relative="1" as="geometry">
            <mxPoint x="-11" y="-13" as="offset" />
          </mxGeometry>
        </mxCell>
        <mxCell id="Yb8myrwH-e1HCDACNnJ4-34" value="1" style="text;html=1;align=center;verticalAlign=middle;resizable=0;points=[];autosize=1;strokeColor=none;fillColor=none;" parent="1" vertex="1">
          <mxGeometry x="85" y="-360" width="30" height="30" as="geometry" />
        </mxCell>
        <mxCell id="Yb8myrwH-e1HCDACNnJ4-35" value="" style="endArrow=none;html=1;rounded=0;entryX=0.5;entryY=0;entryDx=0;entryDy=0;exitX=0.5;exitY=1;exitDx=0;exitDy=0;" parent="1" source="Yb8myrwH-e1HCDACNnJ4-29" target="Yb8myrwH-e1HCDACNnJ4-24" edge="1">
          <mxGeometry relative="1" as="geometry">
            <mxPoint x="45" y="-570" as="sourcePoint" />
            <mxPoint x="83" y="-650" as="targetPoint" />
          </mxGeometry>
        </mxCell>
        <mxCell id="Yb8myrwH-e1HCDACNnJ4-36" value="DTitle" style="ellipse;whiteSpace=wrap;html=1;align=center;" parent="1" vertex="1">
          <mxGeometry x="360" y="-640" width="65" height="40" as="geometry" />
        </mxCell>
        <mxCell id="Yb8myrwH-e1HCDACNnJ4-37" value="" style="endArrow=none;html=1;rounded=0;entryX=0.5;entryY=1;entryDx=0;entryDy=0;" parent="1" target="Yb8myrwH-e1HCDACNnJ4-36" edge="1">
          <mxGeometry relative="1" as="geometry">
            <mxPoint x="340" y="-580" as="sourcePoint" />
            <mxPoint x="350" y="-570" as="targetPoint" />
          </mxGeometry>
        </mxCell>
        <mxCell id="Yb8myrwH-e1HCDACNnJ4-38" value="" style="shape=link;html=1;rounded=0;exitX=0.5;exitY=1;exitDx=0;exitDy=0;entryX=0.5;entryY=0;entryDx=0;entryDy=0;" parent="1" source="Yb8myrwH-e1HCDACNnJ4-1" target="Yb8myrwH-e1HCDACNnJ4-21" edge="1">
          <mxGeometry relative="1" as="geometry">
            <mxPoint x="95" y="-550" as="sourcePoint" />
            <mxPoint x="145" y="-550" as="targetPoint" />
          </mxGeometry>
        </mxCell>
        <mxCell id="Yb8myrwH-e1HCDACNnJ4-39" value="Patient" style="whiteSpace=wrap;html=1;align=center;" parent="1" vertex="1">
          <mxGeometry x="-248" y="200" width="100" height="40" as="geometry" />
        </mxCell>
        <mxCell id="Yb8myrwH-e1HCDACNnJ4-40" value="Inpatient" style="whiteSpace=wrap;html=1;align=center;" parent="1" vertex="1">
          <mxGeometry x="-338" y="-15" width="100" height="40" as="geometry" />
        </mxCell>
        <mxCell id="Yb8myrwH-e1HCDACNnJ4-41" value="Outpatient" style="whiteSpace=wrap;html=1;align=center;" parent="1" vertex="1">
          <mxGeometry x="97" y="103.34" width="100" height="40" as="geometry" />
        </mxCell>
        <mxCell id="Yb8myrwH-e1HCDACNnJ4-42" value="&lt;div&gt;&lt;u&gt;PCode&lt;/u&gt;&lt;/div&gt;" style="ellipse;whiteSpace=wrap;html=1;align=center;" parent="1" vertex="1">
          <mxGeometry x="-213" y="385.34" width="65" height="40" as="geometry" />
        </mxCell>
        <mxCell id="Yb8myrwH-e1HCDACNnJ4-43" style="rounded=0;orthogonalLoop=1;jettySize=auto;html=1;exitX=-0.028;exitY=0.301;exitDx=0;exitDy=0;entryX=0.5;entryY=1;entryDx=0;entryDy=0;endArrow=none;endFill=0;exitPerimeter=0;" parent="1" source="Yb8myrwH-e1HCDACNnJ4-44" target="Yb8myrwH-e1HCDACNnJ4-39" edge="1">
          <mxGeometry relative="1" as="geometry" />
        </mxCell>
        <mxCell id="Yb8myrwH-e1HCDACNnJ4-44" value="&lt;div&gt;PGender&lt;/div&gt;" style="ellipse;whiteSpace=wrap;html=1;align=center;" parent="1" vertex="1">
          <mxGeometry x="-93" y="310" width="60" height="40" as="geometry" />
        </mxCell>
        <mxCell id="Yb8myrwH-e1HCDACNnJ4-45" value="PLName" style="ellipse;whiteSpace=wrap;html=1;align=center;" parent="1" vertex="1">
          <mxGeometry x="-360" y="370.34" width="65" height="40" as="geometry" />
        </mxCell>
        <mxCell id="Yb8myrwH-e1HCDACNnJ4-46" style="rounded=0;orthogonalLoop=1;jettySize=auto;html=1;exitX=1;exitY=0.5;exitDx=0;exitDy=0;entryX=0.5;entryY=1;entryDx=0;entryDy=0;endArrow=none;endFill=0;" parent="1" source="Yb8myrwH-e1HCDACNnJ4-47" target="Yb8myrwH-e1HCDACNnJ4-39" edge="1">
          <mxGeometry relative="1" as="geometry" />
        </mxCell>
        <mxCell id="Yb8myrwH-e1HCDACNnJ4-47" value="&lt;div&gt;PDoB&lt;/div&gt;" style="ellipse;whiteSpace=wrap;html=1;align=center;" parent="1" vertex="1">
          <mxGeometry x="-393" y="310" width="65" height="40" as="geometry" />
        </mxCell>
        <mxCell id="Yb8myrwH-e1HCDACNnJ4-48" value="PFName" style="ellipse;whiteSpace=wrap;html=1;align=center;" parent="1" vertex="1">
          <mxGeometry x="-288" y="385.34" width="60" height="40" as="geometry" />
        </mxCell>
        <mxCell id="Yb8myrwH-e1HCDACNnJ4-49" value="" style="endArrow=none;html=1;rounded=0;entryX=0.5;entryY=0;entryDx=0;entryDy=0;exitX=0.5;exitY=1;exitDx=0;exitDy=0;" parent="1" source="Yb8myrwH-e1HCDACNnJ4-39" target="Yb8myrwH-e1HCDACNnJ4-45" edge="1">
          <mxGeometry relative="1" as="geometry">
            <mxPoint x="-409.25" y="486" as="sourcePoint" />
            <mxPoint x="-310.25" y="460" as="targetPoint" />
          </mxGeometry>
        </mxCell>
        <mxCell id="Yb8myrwH-e1HCDACNnJ4-50" value="" style="endArrow=none;html=1;rounded=0;entryX=0.5;entryY=1;entryDx=0;entryDy=0;exitX=0.5;exitY=0;exitDx=0;exitDy=0;" parent="1" source="Yb8myrwH-e1HCDACNnJ4-48" target="Yb8myrwH-e1HCDACNnJ4-39" edge="1">
          <mxGeometry relative="1" as="geometry">
            <mxPoint x="-213" y="370" as="sourcePoint" />
            <mxPoint x="-189" y="410" as="targetPoint" />
          </mxGeometry>
        </mxCell>
        <mxCell id="Yb8myrwH-e1HCDACNnJ4-51" value="" style="endArrow=none;html=1;rounded=0;entryX=0.5;entryY=0;entryDx=0;entryDy=0;exitX=0.5;exitY=1;exitDx=0;exitDy=0;" parent="1" source="Yb8myrwH-e1HCDACNnJ4-39" target="Yb8myrwH-e1HCDACNnJ4-42" edge="1">
          <mxGeometry relative="1" as="geometry">
            <mxPoint x="-183" y="350" as="sourcePoint" />
            <mxPoint x="-158" y="340" as="targetPoint" />
          </mxGeometry>
        </mxCell>
        <mxCell id="Yb8myrwH-e1HCDACNnJ4-52" style="rounded=0;orthogonalLoop=1;jettySize=auto;html=1;exitX=0.5;exitY=1;exitDx=0;exitDy=0;" parent="1" edge="1">
          <mxGeometry relative="1" as="geometry">
            <mxPoint x="-3" y="500" as="sourcePoint" />
            <mxPoint x="-3" y="500" as="targetPoint" />
          </mxGeometry>
        </mxCell>
        <mxCell id="Yb8myrwH-e1HCDACNnJ4-53" style="rounded=0;orthogonalLoop=1;jettySize=auto;html=1;exitX=0;exitY=0;exitDx=0;exitDy=0;endArrow=none;endFill=0;entryX=0.5;entryY=1;entryDx=0;entryDy=0;" parent="1" source="Yb8myrwH-e1HCDACNnJ4-54" target="Yb8myrwH-e1HCDACNnJ4-39" edge="1">
          <mxGeometry relative="1" as="geometry">
            <mxPoint x="-200" y="240" as="targetPoint" />
          </mxGeometry>
        </mxCell>
        <mxCell id="Yb8myrwH-e1HCDACNnJ4-54" value="PAddress" style="ellipse;whiteSpace=wrap;html=1;align=center;" parent="1" vertex="1">
          <mxGeometry x="-128" y="370.34000000000003" width="60" height="40" as="geometry" />
        </mxCell>
        <mxCell id="Yb8myrwH-e1HCDACNnJ4-55" style="rounded=0;orthogonalLoop=1;jettySize=auto;html=1;exitX=0.5;exitY=1;exitDx=0;exitDy=0;endArrow=none;endFill=0;entryX=0.5;entryY=1;entryDx=0;entryDy=0;" parent="1" source="Yb8myrwH-e1HCDACNnJ4-56" target="Yb8myrwH-e1HCDACNnJ4-39" edge="1">
          <mxGeometry relative="1" as="geometry" />
        </mxCell>
        <mxCell id="Yb8myrwH-e1HCDACNnJ4-56" value="PPhone" style="ellipse;whiteSpace=wrap;html=1;align=center;" parent="1" vertex="1">
          <mxGeometry x="-388" y="255.00000000000003" width="60" height="40" as="geometry" />
        </mxCell>
        <mxCell id="Yb8myrwH-e1HCDACNnJ4-57" style="rounded=0;orthogonalLoop=1;jettySize=auto;html=1;entryX=0;entryY=0.5;entryDx=0;entryDy=0;endArrow=none;endFill=0;exitX=1;exitY=0.5;exitDx=0;exitDy=0;" parent="1" source="Yb8myrwH-e1HCDACNnJ4-120" target="Yb8myrwH-e1HCDACNnJ4-121" edge="1">
          <mxGeometry relative="1" as="geometry">
            <mxPoint x="290" y="-120" as="sourcePoint" />
            <mxPoint x="373.49036687622174" y="-201.71788166362307" as="targetPoint" />
          </mxGeometry>
        </mxCell>
        <mxCell id="Yb8myrwH-e1HCDACNnJ4-58" style="rounded=0;orthogonalLoop=1;jettySize=auto;html=1;exitX=1;exitY=0.5;exitDx=0;exitDy=0;endArrow=none;endFill=0;entryX=0;entryY=0.5;entryDx=0;entryDy=0;" parent="1" source="Yb8myrwH-e1HCDACNnJ4-120" target="Yb8myrwH-e1HCDACNnJ4-64" edge="1">
          <mxGeometry relative="1" as="geometry">
            <mxPoint x="351" y="-130" as="sourcePoint" />
          </mxGeometry>
        </mxCell>
        <mxCell id="Yb8myrwH-e1HCDACNnJ4-59" style="rounded=0;orthogonalLoop=1;jettySize=auto;html=1;entryX=0;entryY=0;entryDx=0;entryDy=0;exitX=1;exitY=0.5;exitDx=0;exitDy=0;endArrow=none;endFill=0;" parent="1" source="Yb8myrwH-e1HCDACNnJ4-120" target="Yb8myrwH-e1HCDACNnJ4-65" edge="1">
          <mxGeometry relative="1" as="geometry">
            <mxPoint x="351" y="-130" as="sourcePoint" />
          </mxGeometry>
        </mxCell>
        <mxCell id="Yb8myrwH-e1HCDACNnJ4-60" style="rounded=0;orthogonalLoop=1;jettySize=auto;html=1;exitX=1;exitY=0.5;exitDx=0;exitDy=0;entryX=-0.069;entryY=0.477;entryDx=0;entryDy=0;endArrow=none;endFill=0;entryPerimeter=0;" parent="1" source="Yb8myrwH-e1HCDACNnJ4-120" target="Yb8myrwH-e1HCDACNnJ4-66" edge="1">
          <mxGeometry relative="1" as="geometry">
            <mxPoint x="351" y="-130" as="sourcePoint" />
            <mxPoint x="359.7867965644041" y="-69.14213562373106" as="targetPoint" />
          </mxGeometry>
        </mxCell>
        <mxCell id="Yb8myrwH-e1HCDACNnJ4-61" value="InFee" style="ellipse;whiteSpace=wrap;html=1;align=center;" parent="1" vertex="1">
          <mxGeometry x="-422.5" y="80" width="60" height="40" as="geometry" />
        </mxCell>
        <mxCell id="Yb8myrwH-e1HCDACNnJ4-62" value="DateOfDischarge" style="ellipse;whiteSpace=wrap;html=1;align=center;" parent="1" vertex="1">
          <mxGeometry x="40.5" y="-75" width="99.5" height="50" as="geometry" />
        </mxCell>
        <mxCell id="Yb8myrwH-e1HCDACNnJ4-63" value="" style="endArrow=none;html=1;rounded=0;entryX=0.5;entryY=0;entryDx=0;entryDy=0;exitX=0.25;exitY=1;exitDx=0;exitDy=0;" parent="1" source="Yb8myrwH-e1HCDACNnJ4-40" target="Yb8myrwH-e1HCDACNnJ4-61" edge="1">
          <mxGeometry relative="1" as="geometry">
            <mxPoint x="-243" y="165" as="sourcePoint" />
            <mxPoint x="-298" y="135" as="targetPoint" />
          </mxGeometry>
        </mxCell>
        <mxCell id="Yb8myrwH-e1HCDACNnJ4-64" value="OutDiagnosis" style="ellipse;whiteSpace=wrap;html=1;align=center;" parent="1" vertex="1">
          <mxGeometry x="492.5" y="-350" width="82.5" height="55" as="geometry" />
        </mxCell>
        <mxCell id="Yb8myrwH-e1HCDACNnJ4-65" value="ExmNextDate" style="ellipse;whiteSpace=wrap;html=1;align=center;" parent="1" vertex="1">
          <mxGeometry x="504.5" y="-240" width="65" height="40" as="geometry" />
        </mxCell>
        <mxCell id="Yb8myrwH-e1HCDACNnJ4-66" value="ExmFee" style="ellipse;whiteSpace=wrap;html=1;align=center;" parent="1" vertex="1">
          <mxGeometry x="507" y="-280" width="60" height="40" as="geometry" />
        </mxCell>
        <mxCell id="Yb8myrwH-e1HCDACNnJ4-67" value="TreatEndDate" style="ellipse;whiteSpace=wrap;html=1;align=center;" parent="1" vertex="1">
          <mxGeometry x="-85.5" y="-10" width="80" height="60" as="geometry" />
        </mxCell>
        <mxCell id="Yb8myrwH-e1HCDACNnJ4-68" value="InResult" style="ellipse;whiteSpace=wrap;html=1;align=center;" parent="1" vertex="1">
          <mxGeometry x="17" y="10" width="60" height="40" as="geometry" />
        </mxCell>
        <mxCell id="Yb8myrwH-e1HCDACNnJ4-69" value="" style="endArrow=none;html=1;rounded=0;entryX=0.5;entryY=1;entryDx=0;entryDy=0;exitX=1;exitY=0;exitDx=0;exitDy=0;" parent="1" source="Yb8myrwH-e1HCDACNnJ4-67" target="Yb8myrwH-e1HCDACNnJ4-127" edge="1">
          <mxGeometry relative="1" as="geometry">
            <mxPoint x="-358" y="-75" as="sourcePoint" />
            <mxPoint x="-180.50000000000023" y="-125" as="targetPoint" />
          </mxGeometry>
        </mxCell>
        <mxCell id="Yb8myrwH-e1HCDACNnJ4-70" value="take care of" style="shape=rhombus;perimeter=rhombusPerimeter;whiteSpace=wrap;html=1;align=center;" parent="1" vertex="1">
          <mxGeometry x="-348" y="-230" width="120" height="60" as="geometry" />
        </mxCell>
        <mxCell id="Yb8myrwH-e1HCDACNnJ4-71" value="" style="shape=link;html=1;rounded=0;exitX=0.5;exitY=0;exitDx=0;exitDy=0;entryX=0.5;entryY=1;entryDx=0;entryDy=0;" parent="1" source="Yb8myrwH-e1HCDACNnJ4-40" target="Yb8myrwH-e1HCDACNnJ4-70" edge="1">
          <mxGeometry relative="1" as="geometry">
            <mxPoint x="-318" y="-65" as="sourcePoint" />
            <mxPoint x="-373" y="-35" as="targetPoint" />
          </mxGeometry>
        </mxCell>
        <mxCell id="Yb8myrwH-e1HCDACNnJ4-72" style="rounded=0;orthogonalLoop=1;jettySize=auto;html=1;exitX=1;exitY=0.5;exitDx=0;exitDy=0;endArrow=none;endFill=0;entryX=0;entryY=0.5;entryDx=0;entryDy=0;" parent="1" source="Yb8myrwH-e1HCDACNnJ4-74" target="Yb8myrwH-e1HCDACNnJ4-41" edge="1">
          <mxGeometry relative="1" as="geometry" />
        </mxCell>
        <mxCell id="Yb8myrwH-e1HCDACNnJ4-73" style="rounded=0;orthogonalLoop=1;jettySize=auto;html=1;exitX=0.5;exitY=0;exitDx=0;exitDy=0;endArrow=none;endFill=0;entryX=1;entryY=0.75;entryDx=0;entryDy=0;" parent="1" source="Yb8myrwH-e1HCDACNnJ4-74" target="Yb8myrwH-e1HCDACNnJ4-40" edge="1">
          <mxGeometry relative="1" as="geometry">
            <mxPoint x="-200" y="20" as="targetPoint" />
            <Array as="points">
              <mxPoint x="-200" y="15" />
            </Array>
          </mxGeometry>
        </mxCell>
        <mxCell id="Yb8myrwH-e1HCDACNnJ4-74" value="O" style="ellipse;whiteSpace=wrap;html=1;aspect=fixed;" parent="1" vertex="1">
          <mxGeometry x="-213" y="107.84" width="30" height="30" as="geometry" />
        </mxCell>
        <mxCell id="Yb8myrwH-e1HCDACNnJ4-75" value="PackageOfMedications" style="whiteSpace=wrap;html=1;align=center;" parent="1" vertex="1">
          <mxGeometry x="267.25" y="103.34" width="134.5" height="40" as="geometry" />
        </mxCell>
        <mxCell id="Yb8myrwH-e1HCDACNnJ4-76" style="rounded=0;orthogonalLoop=1;jettySize=auto;html=1;exitX=1;exitY=0.5;exitDx=0;exitDy=0;entryX=0;entryY=0.5;entryDx=0;entryDy=0;endArrow=none;endFill=0;" parent="1" source="Yb8myrwH-e1HCDACNnJ4-75" target="Yb8myrwH-e1HCDACNnJ4-80" edge="1">
          <mxGeometry relative="1" as="geometry">
            <mxPoint x="467" y="165.34" as="sourcePoint" />
            <mxPoint x="576.1156249178644" y="89.69800786896789" as="targetPoint" />
          </mxGeometry>
        </mxCell>
        <mxCell id="Yb8myrwH-e1HCDACNnJ4-77" style="rounded=0;orthogonalLoop=1;jettySize=auto;html=1;exitX=1;exitY=0.5;exitDx=0;exitDy=0;endArrow=none;endFill=0;" parent="1" source="Yb8myrwH-e1HCDACNnJ4-75" target="Yb8myrwH-e1HCDACNnJ4-81" edge="1">
          <mxGeometry relative="1" as="geometry">
            <mxPoint x="457" y="165.34" as="sourcePoint" />
          </mxGeometry>
        </mxCell>
        <mxCell id="Yb8myrwH-e1HCDACNnJ4-78" style="rounded=0;orthogonalLoop=1;jettySize=auto;html=1;entryX=0;entryY=0;entryDx=0;entryDy=0;exitX=1;exitY=0.5;exitDx=0;exitDy=0;endArrow=none;endFill=0;" parent="1" source="Yb8myrwH-e1HCDACNnJ4-75" target="Yb8myrwH-e1HCDACNnJ4-82" edge="1">
          <mxGeometry relative="1" as="geometry">
            <mxPoint x="467" y="165.34" as="sourcePoint" />
          </mxGeometry>
        </mxCell>
        <mxCell id="Yb8myrwH-e1HCDACNnJ4-79" style="rounded=0;orthogonalLoop=1;jettySize=auto;html=1;exitX=1;exitY=0.5;exitDx=0;exitDy=0;entryX=0;entryY=0;entryDx=0;entryDy=0;endArrow=none;endFill=0;" parent="1" source="Yb8myrwH-e1HCDACNnJ4-75" target="Yb8myrwH-e1HCDACNnJ4-83" edge="1">
          <mxGeometry relative="1" as="geometry">
            <mxPoint x="467" y="165.34" as="sourcePoint" />
          </mxGeometry>
        </mxCell>
        <mxCell id="Yb8myrwH-e1HCDACNnJ4-80" value="&lt;u&gt;MCode&lt;/u&gt;" style="ellipse;whiteSpace=wrap;html=1;align=center;" parent="1" vertex="1">
          <mxGeometry x="575" y="71" width="60" height="40" as="geometry" />
        </mxCell>
        <mxCell id="Yb8myrwH-e1HCDACNnJ4-81" value="MName" style="ellipse;whiteSpace=wrap;html=1;align=center;" parent="1" vertex="1">
          <mxGeometry x="609.5" y="160" width="60" height="40" as="geometry" />
        </mxCell>
        <mxCell id="Yb8myrwH-e1HCDACNnJ4-82" value="MPrice" style="ellipse;whiteSpace=wrap;html=1;align=center;" parent="1" vertex="1">
          <mxGeometry x="542" y="190" width="60" height="40" as="geometry" />
        </mxCell>
        <mxCell id="Yb8myrwH-e1HCDACNnJ4-83" value="MEffect" style="ellipse;whiteSpace=wrap;html=1;align=center;" parent="1" vertex="1">
          <mxGeometry x="467" y="215" width="60" height="40" as="geometry" />
        </mxCell>
        <mxCell id="Yb8myrwH-e1HCDACNnJ4-85" value="Provider" style="whiteSpace=wrap;html=1;align=center;" parent="1" vertex="1">
          <mxGeometry x="284.5" y="405.34" width="100" height="40" as="geometry" />
        </mxCell>
        <mxCell id="Yb8myrwH-e1HCDACNnJ4-86" style="rounded=0;orthogonalLoop=1;jettySize=auto;html=1;exitX=0;exitY=0.5;exitDx=0;exitDy=0;entryX=1;entryY=0.5;entryDx=0;entryDy=0;endArrow=none;endFill=0;" parent="1" source="Yb8myrwH-e1HCDACNnJ4-87" target="Yb8myrwH-e1HCDACNnJ4-85" edge="1">
          <mxGeometry relative="1" as="geometry" />
        </mxCell>
        <mxCell id="Yb8myrwH-e1HCDACNnJ4-87" value="&lt;u&gt;PVCode&lt;/u&gt;" style="ellipse;whiteSpace=wrap;html=1;align=center;" parent="1" vertex="1">
          <mxGeometry x="452" y="330.34000000000003" width="60" height="40" as="geometry" />
        </mxCell>
        <mxCell id="Yb8myrwH-e1HCDACNnJ4-88" style="rounded=0;orthogonalLoop=1;jettySize=auto;html=1;exitX=0;exitY=0.5;exitDx=0;exitDy=0;entryX=1;entryY=0.5;entryDx=0;entryDy=0;endArrow=none;endFill=0;" parent="1" source="Yb8myrwH-e1HCDACNnJ4-89" target="Yb8myrwH-e1HCDACNnJ4-85" edge="1">
          <mxGeometry relative="1" as="geometry" />
        </mxCell>
        <mxCell id="Yb8myrwH-e1HCDACNnJ4-89" value="PVName" style="ellipse;whiteSpace=wrap;html=1;align=center;" parent="1" vertex="1">
          <mxGeometry x="452" y="385.34000000000003" width="60" height="40" as="geometry" />
        </mxCell>
        <mxCell id="Yb8myrwH-e1HCDACNnJ4-90" style="rounded=0;orthogonalLoop=1;jettySize=auto;html=1;exitX=0;exitY=0.5;exitDx=0;exitDy=0;entryX=1;entryY=0.5;entryDx=0;entryDy=0;endArrow=none;endFill=0;" parent="1" source="Yb8myrwH-e1HCDACNnJ4-91" target="Yb8myrwH-e1HCDACNnJ4-85" edge="1">
          <mxGeometry relative="1" as="geometry" />
        </mxCell>
        <mxCell id="Yb8myrwH-e1HCDACNnJ4-91" value="PVAddress" style="ellipse;whiteSpace=wrap;html=1;align=center;" parent="1" vertex="1">
          <mxGeometry x="452" y="445.34000000000003" width="60" height="40" as="geometry" />
        </mxCell>
        <mxCell id="Yb8myrwH-e1HCDACNnJ4-92" style="rounded=0;orthogonalLoop=1;jettySize=auto;html=1;exitX=0;exitY=0.5;exitDx=0;exitDy=0;entryX=1;entryY=0.5;entryDx=0;entryDy=0;endArrow=none;endFill=0;" parent="1" source="Yb8myrwH-e1HCDACNnJ4-93" target="Yb8myrwH-e1HCDACNnJ4-85" edge="1">
          <mxGeometry relative="1" as="geometry" />
        </mxCell>
        <mxCell id="Yb8myrwH-e1HCDACNnJ4-93" value="&lt;div&gt;PVPhone&lt;/div&gt;" style="ellipse;whiteSpace=wrap;html=1;align=center;" parent="1" vertex="1">
          <mxGeometry x="452" y="500.00000000000006" width="60" height="40" as="geometry" />
        </mxCell>
        <mxCell id="Yb8myrwH-e1HCDACNnJ4-94" style="rounded=0;orthogonalLoop=1;jettySize=auto;html=1;exitX=0;exitY=0.5;exitDx=0;exitDy=0;entryX=1;entryY=0.5;entryDx=0;entryDy=0;endArrow=none;endFill=0;" parent="1" source="Yb8myrwH-e1HCDACNnJ4-95" target="Yb8myrwH-e1HCDACNnJ4-75" edge="1">
          <mxGeometry relative="1" as="geometry">
            <mxPoint x="491.1156249177875" y="79.6980078690211" as="sourcePoint" />
          </mxGeometry>
        </mxCell>
        <mxCell id="Yb8myrwH-e1HCDACNnJ4-95" value="MExpDate" style="ellipse;whiteSpace=wrap;html=1;align=center;" parent="1" vertex="1">
          <mxGeometry x="617" y="111" width="60" height="40" as="geometry" />
        </mxCell>
        <mxCell id="Yb8myrwH-e1HCDACNnJ4-96" style="rounded=0;orthogonalLoop=1;jettySize=auto;html=1;exitX=1;exitY=0.5;exitDx=0;exitDy=0;entryX=1;entryY=0.5;entryDx=0;entryDy=0;endArrow=none;endFill=0;" parent="1" source="Yb8myrwH-e1HCDACNnJ4-97" target="Yb8myrwH-e1HCDACNnJ4-148" edge="1">
          <mxGeometry relative="1" as="geometry" />
        </mxCell>
        <mxCell id="Yb8myrwH-e1HCDACNnJ4-97" value="ImportedPrice" style="ellipse;whiteSpace=wrap;html=1;align=center;" parent="1" vertex="1">
          <mxGeometry x="617" y="290.34000000000003" width="90" height="40" as="geometry" />
        </mxCell>
        <mxCell id="Yb8myrwH-e1HCDACNnJ4-98" style="rounded=0;orthogonalLoop=1;jettySize=auto;html=1;exitX=0;exitY=0.5;exitDx=0;exitDy=0;entryX=1;entryY=0.5;entryDx=0;entryDy=0;endArrow=none;endFill=0;" parent="1" source="Yb8myrwH-e1HCDACNnJ4-99" target="Yb8myrwH-e1HCDACNnJ4-148" edge="1">
          <mxGeometry relative="1" as="geometry" />
        </mxCell>
        <mxCell id="Yb8myrwH-e1HCDACNnJ4-99" value="&lt;u&gt;Imported&lt;br&gt;Date&lt;/u&gt;" style="ellipse;whiteSpace=wrap;html=1;align=center;" parent="1" vertex="1">
          <mxGeometry x="609.5" y="240" width="60" height="40" as="geometry" />
        </mxCell>
        <mxCell id="Yb8myrwH-e1HCDACNnJ4-100" style="rounded=0;orthogonalLoop=1;jettySize=auto;html=1;exitX=0;exitY=0;exitDx=0;exitDy=0;entryX=1;entryY=0.5;entryDx=0;entryDy=0;endArrow=none;endFill=0;" parent="1" source="Yb8myrwH-e1HCDACNnJ4-101" target="Yb8myrwH-e1HCDACNnJ4-148" edge="1">
          <mxGeometry relative="1" as="geometry" />
        </mxCell>
        <mxCell id="Yb8myrwH-e1HCDACNnJ4-101" value="ImportedQuantity" style="ellipse;whiteSpace=wrap;html=1;align=center;" parent="1" vertex="1">
          <mxGeometry x="617" y="340.00000000000006" width="105" height="55" as="geometry" />
        </mxCell>
        <mxCell id="Yb8myrwH-e1HCDACNnJ4-102" value="N" style="text;html=1;align=center;verticalAlign=middle;resizable=0;points=[];autosize=1;strokeColor=none;fillColor=none;" parent="1" vertex="1">
          <mxGeometry x="-325" y="-180" width="30" height="30" as="geometry" />
        </mxCell>
        <mxCell id="Yb8myrwH-e1HCDACNnJ4-103" value="1" style="text;html=1;align=center;verticalAlign=middle;resizable=0;points=[];autosize=1;strokeColor=none;fillColor=none;" parent="1" vertex="1">
          <mxGeometry x="-325" y="-250" width="30" height="30" as="geometry" />
        </mxCell>
        <mxCell id="Yb8myrwH-e1HCDACNnJ4-104" value="&lt;div&gt;ELName&lt;/div&gt;" style="ellipse;whiteSpace=wrap;html=1;align=center;" parent="1" vertex="1">
          <mxGeometry x="195" y="-700" width="60" height="40" as="geometry" />
        </mxCell>
        <mxCell id="Yb8myrwH-e1HCDACNnJ4-105" value="" style="endArrow=none;html=1;rounded=0;entryX=0;entryY=1;entryDx=0;entryDy=0;exitX=0.5;exitY=0;exitDx=0;exitDy=0;" parent="1" source="Yb8myrwH-e1HCDACNnJ4-1" target="Yb8myrwH-e1HCDACNnJ4-104" edge="1">
          <mxGeometry relative="1" as="geometry">
            <mxPoint x="100" y="-570" as="sourcePoint" />
            <mxPoint x="215" y="-430" as="targetPoint" />
          </mxGeometry>
        </mxCell>
        <mxCell id="Yb8myrwH-e1HCDACNnJ4-106" value="" style="endArrow=none;html=1;rounded=0;exitX=1;exitY=0.5;exitDx=0;exitDy=0;entryX=0;entryY=0.5;entryDx=0;entryDy=0;" parent="1" source="Yb8myrwH-e1HCDACNnJ4-17" target="Yb8myrwH-e1HCDACNnJ4-1" edge="1">
          <mxGeometry width="50" height="50" relative="1" as="geometry">
            <mxPoint x="-70" y="-380" as="sourcePoint" />
            <mxPoint x="-20" y="-430" as="targetPoint" />
          </mxGeometry>
        </mxCell>
        <mxCell id="Yb8myrwH-e1HCDACNnJ4-107" value="AdmissDate" style="ellipse;whiteSpace=wrap;html=1;align=center;" parent="1" vertex="1">
          <mxGeometry x="-530" y="-85" width="80" height="60" as="geometry" />
        </mxCell>
        <mxCell id="Yb8myrwH-e1HCDACNnJ4-108" value="" style="endArrow=none;html=1;rounded=0;exitX=1;exitY=0.5;exitDx=0;exitDy=0;entryX=0;entryY=0.5;entryDx=0;entryDy=0;" parent="1" source="Yb8myrwH-e1HCDACNnJ4-107" target="Yb8myrwH-e1HCDACNnJ4-116" edge="1">
          <mxGeometry relative="1" as="geometry">
            <mxPoint x="-528.5" y="225" as="sourcePoint" />
            <mxPoint x="-238" y="20" as="targetPoint" />
          </mxGeometry>
        </mxCell>
        <mxCell id="Yb8myrwH-e1HCDACNnJ4-109" value="Sickroom" style="ellipse;whiteSpace=wrap;html=1;align=center;" parent="1" vertex="1">
          <mxGeometry x="-348" y="83.34" width="65" height="40" as="geometry" />
        </mxCell>
        <mxCell id="Yb8myrwH-e1HCDACNnJ4-110" value="" style="endArrow=none;html=1;rounded=0;exitX=0.5;exitY=0;exitDx=0;exitDy=0;entryX=0.25;entryY=1;entryDx=0;entryDy=0;" parent="1" source="Yb8myrwH-e1HCDACNnJ4-109" target="Yb8myrwH-e1HCDACNnJ4-40" edge="1">
          <mxGeometry relative="1" as="geometry">
            <mxPoint x="-218" y="110" as="sourcePoint" />
            <mxPoint x="-248" y="70" as="targetPoint" />
          </mxGeometry>
        </mxCell>
        <mxCell id="Yb8myrwH-e1HCDACNnJ4-111" value="InDiagnosis" style="ellipse;whiteSpace=wrap;html=1;align=center;" parent="1" vertex="1">
          <mxGeometry x="-425" y="19.999999999999993" width="65" height="40" as="geometry" />
        </mxCell>
        <mxCell id="Yb8myrwH-e1HCDACNnJ4-112" value="" style="endArrow=none;html=1;rounded=0;entryX=0.25;entryY=1;entryDx=0;entryDy=0;exitX=1;exitY=0.5;exitDx=0;exitDy=0;" parent="1" source="Yb8myrwH-e1HCDACNnJ4-111" target="Yb8myrwH-e1HCDACNnJ4-40" edge="1">
          <mxGeometry relative="1" as="geometry">
            <mxPoint x="-387.2" y="10.259999999999991" as="sourcePoint" />
            <mxPoint x="-330.99999999999994" y="134.99999999999977" as="targetPoint" />
          </mxGeometry>
        </mxCell>
        <mxCell id="Yb8myrwH-e1HCDACNnJ4-113" value="" style="endArrow=none;html=1;rounded=0;entryX=0.5;entryY=1;entryDx=0;entryDy=0;exitX=0;exitY=0.5;exitDx=0;exitDy=0;" parent="1" source="Yb8myrwH-e1HCDACNnJ4-114" target="Yb8myrwH-e1HCDACNnJ4-39" edge="1">
          <mxGeometry width="50" height="50" relative="1" as="geometry">
            <mxPoint x="-28" y="302.5" as="sourcePoint" />
            <mxPoint x="-78" y="180" as="targetPoint" />
          </mxGeometry>
        </mxCell>
        <mxCell id="Yb8myrwH-e1HCDACNnJ4-114" value="PTypeCode" style="ellipse;whiteSpace=wrap;html=1;" parent="1" vertex="1">
          <mxGeometry x="-103" y="255" width="80" height="40" as="geometry" />
        </mxCell>
        <mxCell id="Yb8myrwH-e1HCDACNnJ4-115" style="rounded=0;orthogonalLoop=1;jettySize=auto;html=1;endArrow=none;endFill=0;shape=link;exitX=0.5;exitY=0;exitDx=0;exitDy=0;entryX=0.5;entryY=1;entryDx=0;entryDy=0;" parent="1" source="Yb8myrwH-e1HCDACNnJ4-39" target="Yb8myrwH-e1HCDACNnJ4-74" edge="1">
          <mxGeometry relative="1" as="geometry">
            <mxPoint x="-90" y="280" as="sourcePoint" />
            <mxPoint x="-98" y="195" as="targetPoint" />
          </mxGeometry>
        </mxCell>
        <mxCell id="Yb8myrwH-e1HCDACNnJ4-116" value="&lt;u&gt;Combine&lt;br&gt;PCode&lt;/u&gt;" style="ellipse;whiteSpace=wrap;html=1;" parent="1" vertex="1">
          <mxGeometry x="-425" y="-25" width="60" height="40" as="geometry" />
        </mxCell>
        <mxCell id="Yb8myrwH-e1HCDACNnJ4-117" value="" style="endArrow=none;html=1;rounded=0;exitX=1;exitY=0.5;exitDx=0;exitDy=0;entryX=0;entryY=0.5;entryDx=0;entryDy=0;" parent="1" source="Yb8myrwH-e1HCDACNnJ4-116" target="Yb8myrwH-e1HCDACNnJ4-40" edge="1">
          <mxGeometry width="50" height="50" relative="1" as="geometry">
            <mxPoint x="-118" y="170" as="sourcePoint" />
            <mxPoint x="-68" y="120" as="targetPoint" />
          </mxGeometry>
        </mxCell>
        <mxCell id="Yb8myrwH-e1HCDACNnJ4-118" value="&lt;u&gt;OUTPCode&lt;/u&gt;" style="ellipse;whiteSpace=wrap;html=1;" parent="1" vertex="1">
          <mxGeometry x="109" y="192.5" width="76" height="47.5" as="geometry" />
        </mxCell>
        <mxCell id="Yb8myrwH-e1HCDACNnJ4-119" value="" style="endArrow=none;html=1;rounded=0;entryX=0.5;entryY=1;entryDx=0;entryDy=0;exitX=0.5;exitY=0;exitDx=0;exitDy=0;" parent="1" source="Yb8myrwH-e1HCDACNnJ4-118" target="Yb8myrwH-e1HCDACNnJ4-41" edge="1">
          <mxGeometry width="50" height="50" relative="1" as="geometry">
            <mxPoint x="-118" y="170" as="sourcePoint" />
            <mxPoint x="-68" y="120" as="targetPoint" />
          </mxGeometry>
        </mxCell>
        <mxCell id="Yb8myrwH-e1HCDACNnJ4-120" value="&lt;div&gt;Examination&lt;/div&gt;&lt;div&gt;Report&lt;br&gt;&lt;/div&gt;" style="shape=ext;margin=3;double=1;whiteSpace=wrap;html=1;align=center;" parent="1" vertex="1">
          <mxGeometry x="347" y="-240" width="100" height="40" as="geometry" />
        </mxCell>
        <mxCell id="Yb8myrwH-e1HCDACNnJ4-121" value="&lt;span style=&quot;border-bottom: 1px dotted&quot;&gt;ExaminationDate&lt;/span&gt;" style="ellipse;whiteSpace=wrap;html=1;align=center;" parent="1" vertex="1">
          <mxGeometry x="475" y="-395" width="100" height="40" as="geometry" />
        </mxCell>
        <mxCell id="Yb8myrwH-e1HCDACNnJ4-122" value="" style="endArrow=none;html=1;rounded=0;exitX=0.5;exitY=0;exitDx=0;exitDy=0;entryX=0.5;entryY=1;entryDx=0;entryDy=0;" parent="1" source="Yb8myrwH-e1HCDACNnJ4-41" target="Yb8myrwH-e1HCDACNnJ4-124" edge="1">
          <mxGeometry relative="1" as="geometry">
            <mxPoint x="260" y="-200" as="sourcePoint" />
            <mxPoint x="129.55999999999995" y="-90.12000000000012" as="targetPoint" />
          </mxGeometry>
        </mxCell>
        <mxCell id="Yb8myrwH-e1HCDACNnJ4-123" value="1" style="edgeLabel;html=1;align=center;verticalAlign=middle;resizable=0;points=[];" parent="Yb8myrwH-e1HCDACNnJ4-122" connectable="0" vertex="1">
          <mxGeometry x="0.1171" y="-3" relative="1" as="geometry">
            <mxPoint x="-13" y="-114" as="offset" />
          </mxGeometry>
        </mxCell>
        <mxCell id="Yb8myrwH-e1HCDACNnJ4-124" value="examine" style="shape=rhombus;double=1;perimeter=rhombusPerimeter;whiteSpace=wrap;html=1;align=center;" parent="1" vertex="1">
          <mxGeometry x="87" y="-250" width="120" height="60" as="geometry" />
        </mxCell>
        <mxCell id="Yb8myrwH-e1HCDACNnJ4-125" value="" style="endArrow=none;html=1;rounded=0;exitX=1;exitY=0.5;exitDx=0;exitDy=0;entryX=0;entryY=0;entryDx=0;entryDy=0;" parent="1" source="Yb8myrwH-e1HCDACNnJ4-20" target="Yb8myrwH-e1HCDACNnJ4-124" edge="1">
          <mxGeometry relative="1" as="geometry">
            <mxPoint x="260" y="-200" as="sourcePoint" />
            <mxPoint x="420" y="-200" as="targetPoint" />
          </mxGeometry>
        </mxCell>
        <mxCell id="Yb8myrwH-e1HCDACNnJ4-126" value="1" style="edgeLabel;html=1;align=center;verticalAlign=middle;resizable=0;points=[];" parent="Yb8myrwH-e1HCDACNnJ4-125" connectable="0" vertex="1">
          <mxGeometry x="-0.0327" y="1" relative="1" as="geometry">
            <mxPoint x="16" y="35" as="offset" />
          </mxGeometry>
        </mxCell>
        <mxCell id="Yb8myrwH-e1HCDACNnJ4-127" value="Treatment&lt;br&gt;&lt;div&gt;Report&lt;br&gt;&lt;/div&gt;" style="shape=ext;margin=3;double=1;whiteSpace=wrap;html=1;align=center;" parent="1" vertex="1">
          <mxGeometry x="-33" y="-160" width="100" height="40" as="geometry" />
        </mxCell>
        <mxCell id="Yb8myrwH-e1HCDACNnJ4-128" value="" style="shape=link;html=1;rounded=0;exitX=1;exitY=0.5;exitDx=0;exitDy=0;entryX=0;entryY=0.5;entryDx=0;entryDy=0;" parent="1" source="Yb8myrwH-e1HCDACNnJ4-131" target="Yb8myrwH-e1HCDACNnJ4-127" edge="1">
          <mxGeometry relative="1" as="geometry">
            <mxPoint x="-96" y="-130" as="sourcePoint" />
            <mxPoint x="117" y="-225" as="targetPoint" />
          </mxGeometry>
        </mxCell>
        <mxCell id="Yb8myrwH-e1HCDACNnJ4-129" value="" style="resizable=0;html=1;whiteSpace=wrap;align=right;verticalAlign=bottom;" parent="Yb8myrwH-e1HCDACNnJ4-128" connectable="0" vertex="1">
          <mxGeometry x="1" relative="1" as="geometry" />
        </mxCell>
        <mxCell id="Yb8myrwH-e1HCDACNnJ4-130" value="N" style="edgeLabel;html=1;align=center;verticalAlign=middle;resizable=0;points=[];" parent="Yb8myrwH-e1HCDACNnJ4-128" connectable="0" vertex="1">
          <mxGeometry x="0.0229" y="2" relative="1" as="geometry">
            <mxPoint x="-46" y="-8" as="offset" />
          </mxGeometry>
        </mxCell>
        <mxCell id="Yb8myrwH-e1HCDACNnJ4-131" value="treat" style="shape=rhombus;double=1;perimeter=rhombusPerimeter;whiteSpace=wrap;html=1;align=center;" parent="1" vertex="1">
          <mxGeometry x="-258" y="-170" width="120" height="60" as="geometry" />
        </mxCell>
        <mxCell id="Yb8myrwH-e1HCDACNnJ4-132" value="" style="endArrow=none;html=1;rounded=0;exitX=0.5;exitY=0;exitDx=0;exitDy=0;entryX=0;entryY=0.5;entryDx=0;entryDy=0;" parent="1" source="Yb8myrwH-e1HCDACNnJ4-131" target="Yb8myrwH-e1HCDACNnJ4-20" edge="1">
          <mxGeometry relative="1" as="geometry">
            <mxPoint x="-110.50000000000045" y="-165" as="sourcePoint" />
            <mxPoint x="-200" y="-320" as="targetPoint" />
            <Array as="points">
              <mxPoint x="-198" y="-330" />
            </Array>
          </mxGeometry>
        </mxCell>
        <mxCell id="Yb8myrwH-e1HCDACNnJ4-133" value="1" style="edgeLabel;html=1;align=center;verticalAlign=middle;resizable=0;points=[];" parent="Yb8myrwH-e1HCDACNnJ4-132" connectable="0" vertex="1">
          <mxGeometry x="-0.1323" relative="1" as="geometry">
            <mxPoint x="15" y="139" as="offset" />
          </mxGeometry>
        </mxCell>
        <mxCell id="Yb8myrwH-e1HCDACNnJ4-134" value="" style="endArrow=none;html=1;rounded=0;entryX=0.5;entryY=1;entryDx=0;entryDy=0;exitX=1.007;exitY=0.361;exitDx=0;exitDy=0;exitPerimeter=0;" parent="1" source="Yb8myrwH-e1HCDACNnJ4-40" target="Yb8myrwH-e1HCDACNnJ4-131" edge="1">
          <mxGeometry relative="1" as="geometry">
            <mxPoint x="-200" as="sourcePoint" />
            <mxPoint x="-160.44000000000005" y="-100.83999999999992" as="targetPoint" />
            <Array as="points">
              <mxPoint x="-200" />
            </Array>
          </mxGeometry>
        </mxCell>
        <mxCell id="Yb8myrwH-e1HCDACNnJ4-135" value="1" style="edgeLabel;html=1;align=center;verticalAlign=middle;resizable=0;points=[];" parent="Yb8myrwH-e1HCDACNnJ4-134" connectable="0" vertex="1">
          <mxGeometry x="0.0074" relative="1" as="geometry">
            <mxPoint x="19" y="-63" as="offset" />
          </mxGeometry>
        </mxCell>
        <mxCell id="Yb8myrwH-e1HCDACNnJ4-136" value="&lt;span style=&quot;border-bottom: 1px dotted&quot;&gt;TreatmentStartDate&lt;/span&gt;" style="ellipse;whiteSpace=wrap;html=1;align=center;" parent="1" vertex="1">
          <mxGeometry x="-163" y="-75" width="130" height="60" as="geometry" />
        </mxCell>
        <mxCell id="Yb8myrwH-e1HCDACNnJ4-137" value="" style="endArrow=none;html=1;rounded=0;entryX=1;entryY=0;entryDx=0;entryDy=0;exitX=0.5;exitY=1;exitDx=0;exitDy=0;" parent="1" source="Yb8myrwH-e1HCDACNnJ4-127" target="Yb8myrwH-e1HCDACNnJ4-136" edge="1">
          <mxGeometry relative="1" as="geometry">
            <mxPoint x="-80" y="-110" as="sourcePoint" />
            <mxPoint x="80" y="-110" as="targetPoint" />
          </mxGeometry>
        </mxCell>
        <mxCell id="Yb8myrwH-e1HCDACNnJ4-138" value="" style="shape=link;html=1;rounded=0;exitX=1;exitY=0.5;exitDx=0;exitDy=0;" parent="1" source="Yb8myrwH-e1HCDACNnJ4-124" target="Yb8myrwH-e1HCDACNnJ4-120" edge="1">
          <mxGeometry relative="1" as="geometry">
            <mxPoint x="197" y="-270" as="sourcePoint" />
            <mxPoint x="357" y="-270" as="targetPoint" />
          </mxGeometry>
        </mxCell>
        <mxCell id="Yb8myrwH-e1HCDACNnJ4-139" value="N" style="edgeLabel;html=1;align=center;verticalAlign=middle;resizable=0;points=[];" parent="Yb8myrwH-e1HCDACNnJ4-138" connectable="0" vertex="1">
          <mxGeometry x="-0.1773" y="-4" relative="1" as="geometry">
            <mxPoint x="7" y="6" as="offset" />
          </mxGeometry>
        </mxCell>
        <mxCell id="Yb8myrwH-e1HCDACNnJ4-140" value="" style="endArrow=none;html=1;rounded=0;entryX=0.5;entryY=0;entryDx=0;entryDy=0;exitX=0.5;exitY=1;exitDx=0;exitDy=0;" parent="1" source="Yb8myrwH-e1HCDACNnJ4-127" target="Yb8myrwH-e1HCDACNnJ4-62" edge="1">
          <mxGeometry relative="1" as="geometry">
            <mxPoint x="12" y="-120" as="sourcePoint" />
            <mxPoint x="-13" y="-180" as="targetPoint" />
          </mxGeometry>
        </mxCell>
        <mxCell id="Yb8myrwH-e1HCDACNnJ4-141" value="Jobtype" style="ellipse;whiteSpace=wrap;html=1;" parent="1" vertex="1">
          <mxGeometry x="-210" y="-504" width="93" height="48" as="geometry" />
        </mxCell>
        <mxCell id="Yb8myrwH-e1HCDACNnJ4-142" value="" style="endArrow=none;html=1;rounded=0;entryX=0;entryY=0.5;entryDx=0;entryDy=0;exitX=1;exitY=0;exitDx=0;exitDy=0;" parent="1" source="Yb8myrwH-e1HCDACNnJ4-141" target="Yb8myrwH-e1HCDACNnJ4-1" edge="1">
          <mxGeometry width="50" height="50" relative="1" as="geometry">
            <mxPoint x="108" y="-512" as="sourcePoint" />
            <mxPoint x="568" y="-632" as="targetPoint" />
          </mxGeometry>
        </mxCell>
        <mxCell id="Yb8myrwH-e1HCDACNnJ4-143" value="Mstatus" style="ellipse;whiteSpace=wrap;html=1;align=center;" parent="1" vertex="1">
          <mxGeometry x="467" y="31.000000000000004" width="100" height="40" as="geometry" />
        </mxCell>
        <mxCell id="Yb8myrwH-e1HCDACNnJ4-144" value="" style="endArrow=none;html=1;rounded=0;entryX=0.09;entryY=0.8;entryDx=0;entryDy=0;entryPerimeter=0;exitX=1;exitY=0.5;exitDx=0;exitDy=0;" parent="1" source="Yb8myrwH-e1HCDACNnJ4-75" target="Yb8myrwH-e1HCDACNnJ4-143" edge="1">
          <mxGeometry relative="1" as="geometry">
            <mxPoint x="200" y="203.34" as="sourcePoint" />
            <mxPoint x="360" y="203.34" as="targetPoint" />
          </mxGeometry>
        </mxCell>
        <mxCell id="Yb8myrwH-e1HCDACNnJ4-148" value="&lt;div&gt;Provider-Medication&lt;/div&gt;" style="shape=ext;margin=3;double=1;whiteSpace=wrap;html=1;align=center;" parent="1" vertex="1">
          <mxGeometry x="485" y="280.34" width="100" height="40" as="geometry" />
        </mxCell>
        <mxCell id="Yb8myrwH-e1HCDACNnJ4-149" value="" style="endArrow=none;html=1;rounded=0;exitX=0.5;exitY=1;exitDx=0;exitDy=0;entryX=0.5;entryY=0;entryDx=0;entryDy=0;" parent="1" source="Yb8myrwH-e1HCDACNnJ4-75" target="tsRtIHvJB23O1sXrkjgM-1" edge="1">
          <mxGeometry relative="1" as="geometry">
            <mxPoint x="337" y="185.33999999999997" as="sourcePoint" />
            <mxPoint x="334.5" y="270.34000000000015" as="targetPoint" />
          </mxGeometry>
        </mxCell>
        <mxCell id="Yb8myrwH-e1HCDACNnJ4-150" value="1" style="edgeLabel;html=1;align=center;verticalAlign=middle;resizable=0;points=[];" parent="Yb8myrwH-e1HCDACNnJ4-149" connectable="0" vertex="1">
          <mxGeometry x="-0.0327" y="1" relative="1" as="geometry">
            <mxPoint x="12" y="145" as="offset" />
          </mxGeometry>
        </mxCell>
        <mxCell id="Yb8myrwH-e1HCDACNnJ4-151" value="" style="endArrow=none;html=1;rounded=0;exitX=0.5;exitY=1;exitDx=0;exitDy=0;entryX=0.5;entryY=0;entryDx=0;entryDy=0;" parent="1" source="tsRtIHvJB23O1sXrkjgM-1" target="Yb8myrwH-e1HCDACNnJ4-85" edge="1">
          <mxGeometry relative="1" as="geometry">
            <mxPoint x="334.5" y="330.34000000000015" as="sourcePoint" />
            <mxPoint x="345" y="280" as="targetPoint" />
          </mxGeometry>
        </mxCell>
        <mxCell id="Yb8myrwH-e1HCDACNnJ4-152" value="" style="shape=link;html=1;rounded=0;exitX=1;exitY=0.5;exitDx=0;exitDy=0;entryX=0;entryY=0.5;entryDx=0;entryDy=0;" parent="1" source="tsRtIHvJB23O1sXrkjgM-1" target="Yb8myrwH-e1HCDACNnJ4-148" edge="1">
          <mxGeometry relative="1" as="geometry">
            <mxPoint x="394.5" y="300.34000000000015" as="sourcePoint" />
            <mxPoint x="357" y="-210" as="targetPoint" />
          </mxGeometry>
        </mxCell>
        <mxCell id="Yb8myrwH-e1HCDACNnJ4-153" value="N" style="edgeLabel;html=1;align=center;verticalAlign=middle;resizable=0;points=[];" parent="Yb8myrwH-e1HCDACNnJ4-152" connectable="0" vertex="1">
          <mxGeometry x="-0.1773" y="-4" relative="1" as="geometry">
            <mxPoint x="-29" y="6" as="offset" />
          </mxGeometry>
        </mxCell>
        <mxCell id="Yb8myrwH-e1HCDACNnJ4-154" value="1" style="edgeLabel;html=1;align=center;verticalAlign=middle;resizable=0;points=[];" parent="1" connectable="0" vertex="1">
          <mxGeometry x="357.5" y="360.00666666666666" as="geometry">
            <mxPoint x="-9" y="-116" as="offset" />
          </mxGeometry>
        </mxCell>
        <mxCell id="Yb8myrwH-e1HCDACNnJ4-155" value="MCurrentQuantity" style="ellipse;whiteSpace=wrap;html=1;align=center;" parent="1" vertex="1">
          <mxGeometry x="364" y="210.34" width="93" height="60" as="geometry" />
        </mxCell>
        <mxCell id="Yb8myrwH-e1HCDACNnJ4-156" style="rounded=0;orthogonalLoop=1;jettySize=auto;html=1;exitX=1;exitY=0.5;exitDx=0;exitDy=0;endArrow=none;endFill=0;" parent="1" source="Yb8myrwH-e1HCDACNnJ4-75" target="Yb8myrwH-e1HCDACNnJ4-155" edge="1">
          <mxGeometry relative="1" as="geometry">
            <mxPoint x="395" y="133" as="sourcePoint" />
            <mxPoint x="486" y="231" as="targetPoint" />
          </mxGeometry>
        </mxCell>
        <mxCell id="Yb8myrwH-e1HCDACNnJ4-159" value="INPCode" style="ellipse;whiteSpace=wrap;html=1;fontStyle=4;" parent="1" vertex="1">
          <mxGeometry x="-510" y="-20" width="60" height="40" as="geometry" />
        </mxCell>
        <mxCell id="Yb8myrwH-e1HCDACNnJ4-160" value="" style="endArrow=none;html=1;rounded=0;exitX=0;exitY=0.5;exitDx=0;exitDy=0;entryX=1;entryY=0.5;entryDx=0;entryDy=0;" parent="1" source="Yb8myrwH-e1HCDACNnJ4-116" target="Yb8myrwH-e1HCDACNnJ4-159" edge="1">
          <mxGeometry width="50" height="50" relative="1" as="geometry">
            <mxPoint x="-415" y="5" as="sourcePoint" />
            <mxPoint x="-440" y="-50" as="targetPoint" />
          </mxGeometry>
        </mxCell>
        <mxCell id="Yb8myrwH-e1HCDACNnJ4-163" value="EPhone" style="ellipse;shape=doubleEllipse;margin=3;whiteSpace=wrap;html=1;align=center;" parent="1" vertex="1">
          <mxGeometry x="-213" y="-620" width="73" height="40" as="geometry" />
        </mxCell>
        <mxCell id="Yb8myrwH-e1HCDACNnJ4-165" value="be prescribed" style="shape=rhombus;double=1;perimeter=rhombusPerimeter;whiteSpace=wrap;html=1;align=center;rotation=-15;" parent="1" vertex="1">
          <mxGeometry x="175" y="10" width="120" height="60" as="geometry" />
        </mxCell>
        <mxCell id="Yb8myrwH-e1HCDACNnJ4-166" value="be prescribed" style="shape=rhombus;double=1;perimeter=rhombusPerimeter;whiteSpace=wrap;html=1;align=center;" parent="1" vertex="1">
          <mxGeometry x="360" y="-80" width="120" height="60" as="geometry" />
        </mxCell>
        <mxCell id="Yb8myrwH-e1HCDACNnJ4-167" value="Inpatient Prescription" style="shape=ext;margin=3;double=1;whiteSpace=wrap;html=1;align=center;" parent="1" vertex="1">
          <mxGeometry x="262.5" y="-55" width="80" height="40" as="geometry" />
        </mxCell>
        <mxCell id="Yb8myrwH-e1HCDACNnJ4-168" value="Outpatient Prescription" style="shape=ext;margin=3;double=1;whiteSpace=wrap;html=1;align=center;" parent="1" vertex="1">
          <mxGeometry x="509.5" y="-70" width="80.5" height="40" as="geometry" />
        </mxCell>
        <mxCell id="Yb8myrwH-e1HCDACNnJ4-170" value="amount" style="ellipse;whiteSpace=wrap;html=1;align=center;" parent="1" vertex="1">
          <mxGeometry x="609.5" y="-67.5" width="60" height="35" as="geometry" />
        </mxCell>
        <mxCell id="Yb8myrwH-e1HCDACNnJ4-171" value="" style="shape=link;html=1;rounded=0;exitX=1;exitY=0.5;exitDx=0;exitDy=0;entryX=0;entryY=0.5;entryDx=0;entryDy=0;" parent="1" source="Yb8myrwH-e1HCDACNnJ4-166" target="Yb8myrwH-e1HCDACNnJ4-168" edge="1">
          <mxGeometry relative="1" as="geometry">
            <mxPoint x="285" y="20" as="sourcePoint" />
            <mxPoint x="285" y="-10" as="targetPoint" />
          </mxGeometry>
        </mxCell>
        <mxCell id="Yb8myrwH-e1HCDACNnJ4-172" value="" style="resizable=0;html=1;whiteSpace=wrap;align=right;verticalAlign=bottom;" parent="Yb8myrwH-e1HCDACNnJ4-171" connectable="0" vertex="1">
          <mxGeometry x="1" relative="1" as="geometry" />
        </mxCell>
        <mxCell id="Yb8myrwH-e1HCDACNnJ4-173" value="N" style="edgeLabel;html=1;align=center;verticalAlign=middle;resizable=0;points=[];" parent="Yb8myrwH-e1HCDACNnJ4-171" connectable="0" vertex="1">
          <mxGeometry x="0.0229" y="2" relative="1" as="geometry">
            <mxPoint x="-15" y="-8" as="offset" />
          </mxGeometry>
        </mxCell>
        <mxCell id="Yb8myrwH-e1HCDACNnJ4-174" value="" style="endArrow=none;html=1;rounded=0;exitX=0.5;exitY=1;exitDx=0;exitDy=0;entryX=0.5;entryY=0;entryDx=0;entryDy=0;" parent="1" source="Yb8myrwH-e1HCDACNnJ4-165" target="Yb8myrwH-e1HCDACNnJ4-75" edge="1">
          <mxGeometry relative="1" as="geometry">
            <mxPoint x="345" y="153" as="sourcePoint" />
            <mxPoint x="345" y="280" as="targetPoint" />
          </mxGeometry>
        </mxCell>
        <mxCell id="Yb8myrwH-e1HCDACNnJ4-175" value="1" style="edgeLabel;html=1;align=center;verticalAlign=middle;resizable=0;points=[];" parent="Yb8myrwH-e1HCDACNnJ4-174" connectable="0" vertex="1">
          <mxGeometry x="-0.0327" y="1" relative="1" as="geometry">
            <mxPoint x="-9" y="-15" as="offset" />
          </mxGeometry>
        </mxCell>
        <mxCell id="Yb8myrwH-e1HCDACNnJ4-176" value="" style="endArrow=none;html=1;rounded=0;exitX=0;exitY=1;exitDx=0;exitDy=0;entryX=0.5;entryY=0;entryDx=0;entryDy=0;" parent="1" source="Yb8myrwH-e1HCDACNnJ4-166" target="Yb8myrwH-e1HCDACNnJ4-75" edge="1">
          <mxGeometry relative="1" as="geometry">
            <mxPoint x="345" y="-40" as="sourcePoint" />
            <mxPoint x="345" y="113" as="targetPoint" />
          </mxGeometry>
        </mxCell>
        <mxCell id="Yb8myrwH-e1HCDACNnJ4-177" value="1" style="edgeLabel;html=1;align=center;verticalAlign=middle;resizable=0;points=[];" parent="Yb8myrwH-e1HCDACNnJ4-176" connectable="0" vertex="1">
          <mxGeometry x="-0.0327" y="1" relative="1" as="geometry">
            <mxPoint x="-1" y="-29" as="offset" />
          </mxGeometry>
        </mxCell>
        <mxCell id="Yb8myrwH-e1HCDACNnJ4-178" value="" style="endArrow=none;html=1;rounded=0;exitX=1;exitY=0.5;exitDx=0;exitDy=0;entryX=0.5;entryY=0;entryDx=0;entryDy=0;" parent="1" source="Yb8myrwH-e1HCDACNnJ4-127" target="Yb8myrwH-e1HCDACNnJ4-165" edge="1">
          <mxGeometry relative="1" as="geometry">
            <mxPoint x="245" y="80" as="sourcePoint" />
            <mxPoint x="345" y="113" as="targetPoint" />
            <Array as="points">
              <mxPoint x="200" y="-140" />
            </Array>
          </mxGeometry>
        </mxCell>
        <mxCell id="Yb8myrwH-e1HCDACNnJ4-179" value="1" style="edgeLabel;html=1;align=center;verticalAlign=middle;resizable=0;points=[];" parent="Yb8myrwH-e1HCDACNnJ4-178" connectable="0" vertex="1">
          <mxGeometry x="-0.0327" y="1" relative="1" as="geometry">
            <mxPoint x="-9" y="134" as="offset" />
          </mxGeometry>
        </mxCell>
        <mxCell id="Yb8myrwH-e1HCDACNnJ4-180" value="" style="shape=link;html=1;rounded=0;exitX=1;exitY=0.5;exitDx=0;exitDy=0;entryX=0.5;entryY=1;entryDx=0;entryDy=0;" parent="1" source="Yb8myrwH-e1HCDACNnJ4-165" target="Yb8myrwH-e1HCDACNnJ4-167" edge="1">
          <mxGeometry relative="1" as="geometry">
            <mxPoint x="490" y="-40" as="sourcePoint" />
            <mxPoint x="520" y="-40" as="targetPoint" />
          </mxGeometry>
        </mxCell>
        <mxCell id="Yb8myrwH-e1HCDACNnJ4-181" value="" style="resizable=0;html=1;whiteSpace=wrap;align=right;verticalAlign=bottom;" parent="Yb8myrwH-e1HCDACNnJ4-180" connectable="0" vertex="1">
          <mxGeometry x="1" relative="1" as="geometry" />
        </mxCell>
        <mxCell id="Yb8myrwH-e1HCDACNnJ4-182" value="N" style="edgeLabel;html=1;align=center;verticalAlign=middle;resizable=0;points=[];" parent="Yb8myrwH-e1HCDACNnJ4-180" connectable="0" vertex="1">
          <mxGeometry x="0.0229" y="2" relative="1" as="geometry">
            <mxPoint x="-15" y="-8" as="offset" />
          </mxGeometry>
        </mxCell>
        <mxCell id="Yb8myrwH-e1HCDACNnJ4-183" value="amount" style="ellipse;whiteSpace=wrap;html=1;align=center;" parent="1" vertex="1">
          <mxGeometry x="214.5" y="-110" width="55.5" height="35" as="geometry" />
        </mxCell>
        <mxCell id="Yb8myrwH-e1HCDACNnJ4-184" value="&lt;span style=&quot;border-bottom: 1px dotted&quot;&gt;DateTime&lt;/span&gt;" style="ellipse;whiteSpace=wrap;html=1;align=center;" parent="1" vertex="1">
          <mxGeometry x="284.5" y="-112" width="73" height="35" as="geometry" />
        </mxCell>
        <mxCell id="Yb8myrwH-e1HCDACNnJ4-185" style="rounded=0;orthogonalLoop=1;jettySize=auto;html=1;entryX=0.5;entryY=1;entryDx=0;entryDy=0;endArrow=none;endFill=0;exitX=0.5;exitY=0;exitDx=0;exitDy=0;" parent="1" source="Yb8myrwH-e1HCDACNnJ4-167" target="Yb8myrwH-e1HCDACNnJ4-183" edge="1">
          <mxGeometry relative="1" as="geometry">
            <mxPoint x="457" y="-210" as="sourcePoint" />
            <mxPoint x="485" y="-365" as="targetPoint" />
          </mxGeometry>
        </mxCell>
        <mxCell id="Yb8myrwH-e1HCDACNnJ4-186" style="rounded=0;orthogonalLoop=1;jettySize=auto;html=1;entryX=0.5;entryY=1;entryDx=0;entryDy=0;endArrow=none;endFill=0;exitX=0.5;exitY=0;exitDx=0;exitDy=0;" parent="1" source="Yb8myrwH-e1HCDACNnJ4-167" target="Yb8myrwH-e1HCDACNnJ4-184" edge="1">
          <mxGeometry relative="1" as="geometry">
            <mxPoint x="305" y="-45" as="sourcePoint" />
            <mxPoint x="252" y="-65" as="targetPoint" />
          </mxGeometry>
        </mxCell>
        <mxCell id="Yb8myrwH-e1HCDACNnJ4-187" style="rounded=0;orthogonalLoop=1;jettySize=auto;html=1;entryX=1;entryY=0.5;entryDx=0;entryDy=0;endArrow=none;endFill=0;exitX=0;exitY=0.5;exitDx=0;exitDy=0;" parent="1" source="Yb8myrwH-e1HCDACNnJ4-170" target="Yb8myrwH-e1HCDACNnJ4-168" edge="1">
          <mxGeometry relative="1" as="geometry">
            <mxPoint x="305" y="-45" as="sourcePoint" />
            <mxPoint x="331" y="-67" as="targetPoint" />
          </mxGeometry>
        </mxCell>
        <mxCell id="Yb8myrwH-e1HCDACNnJ4-188" value="" style="endArrow=none;html=1;rounded=0;exitX=0.5;exitY=1;exitDx=0;exitDy=0;entryX=0.5;entryY=0;entryDx=0;entryDy=0;" parent="1" source="Yb8myrwH-e1HCDACNnJ4-120" target="Yb8myrwH-e1HCDACNnJ4-166" edge="1">
          <mxGeometry relative="1" as="geometry">
            <mxPoint x="400" y="-25" as="sourcePoint" />
            <mxPoint x="345" y="113" as="targetPoint" />
          </mxGeometry>
        </mxCell>
        <mxCell id="Yb8myrwH-e1HCDACNnJ4-189" value="1" style="edgeLabel;html=1;align=center;verticalAlign=middle;resizable=0;points=[];" parent="Yb8myrwH-e1HCDACNnJ4-188" connectable="0" vertex="1">
          <mxGeometry x="-0.0327" y="1" relative="1" as="geometry">
            <mxPoint x="-1" y="-29" as="offset" />
          </mxGeometry>
        </mxCell>
        <mxCell id="tsRtIHvJB23O1sXrkjgM-1" value="Provide" style="shape=rhombus;double=1;perimeter=rhombusPerimeter;whiteSpace=wrap;html=1;align=center;" parent="1" vertex="1">
          <mxGeometry x="274.5" y="270.34" width="120" height="60" as="geometry" />
        </mxCell>
      </root>
    </mxGraphModel>
  </diagram>
  <diagram id="_zTzQioLEHPTP8yW0UzQ" name="ER mapping">
    <mxGraphModel dx="5218" dy="1015" grid="1" gridSize="10" guides="1" tooltips="1" connect="1" arrows="1" fold="1" page="1" pageScale="1" pageWidth="3300" pageHeight="4681" math="0" shadow="0">
      <root>
        <mxCell id="0" />
        <mxCell id="1" parent="0" />
        <mxCell id="Dn_3NnZCM7g7BvhpWIRL-1" value="" style="shape=table;startSize=0;container=1;collapsible=0;childLayout=tableLayout;direction=south;flipH=1;fontSize=15;" parent="1" vertex="1">
          <mxGeometry x="50" y="555" width="1540" height="40" as="geometry" />
        </mxCell>
        <mxCell id="Dn_3NnZCM7g7BvhpWIRL-2" value="" style="shape=tableRow;horizontal=0;startSize=0;swimlaneHead=0;swimlaneBody=0;strokeColor=inherit;top=0;left=0;bottom=0;right=0;collapsible=0;dropTarget=0;fillColor=none;points=[[0,0.5],[1,0.5]];portConstraint=eastwest;fontSize=15;" parent="Dn_3NnZCM7g7BvhpWIRL-1" vertex="1">
          <mxGeometry width="1540" height="40" as="geometry" />
        </mxCell>
        <mxCell id="Dn_3NnZCM7g7BvhpWIRL-3" value="&lt;span style=&quot;font-size: 15px;&quot;&gt;&lt;u style=&quot;font-size: 15px;&quot;&gt;&lt;b style=&quot;font-size: 15px;&quot;&gt;ECode&lt;/b&gt;&lt;/u&gt;&lt;/span&gt;" style="shape=partialRectangle;html=1;whiteSpace=wrap;connectable=0;strokeColor=inherit;overflow=hidden;fillColor=none;top=0;left=0;bottom=0;right=0;pointerEvents=1;fontSize=15;" parent="Dn_3NnZCM7g7BvhpWIRL-2" vertex="1">
          <mxGeometry width="140" height="40" as="geometry">
            <mxRectangle width="140" height="40" as="alternateBounds" />
          </mxGeometry>
        </mxCell>
        <mxCell id="Dn_3NnZCM7g7BvhpWIRL-4" value="&lt;font style=&quot;font-size: 15px;&quot;&gt;EFName&lt;/font&gt;" style="shape=partialRectangle;html=1;whiteSpace=wrap;connectable=0;strokeColor=inherit;overflow=hidden;fillColor=none;top=0;left=0;bottom=0;right=0;pointerEvents=1;fontSize=15;" parent="Dn_3NnZCM7g7BvhpWIRL-2" vertex="1">
          <mxGeometry x="140" width="140" height="40" as="geometry">
            <mxRectangle width="140" height="40" as="alternateBounds" />
          </mxGeometry>
        </mxCell>
        <mxCell id="Dn_3NnZCM7g7BvhpWIRL-5" value="&lt;font style=&quot;font-size: 15px;&quot;&gt;ELName&lt;/font&gt;" style="shape=partialRectangle;html=1;whiteSpace=wrap;connectable=0;strokeColor=inherit;overflow=hidden;fillColor=none;top=0;left=0;bottom=0;right=0;pointerEvents=1;fontSize=15;" parent="Dn_3NnZCM7g7BvhpWIRL-2" vertex="1">
          <mxGeometry x="280" width="140" height="40" as="geometry">
            <mxRectangle width="140" height="40" as="alternateBounds" />
          </mxGeometry>
        </mxCell>
        <mxCell id="Dn_3NnZCM7g7BvhpWIRL-6" value="&lt;font style=&quot;font-size: 15px;&quot;&gt;EBoDate&lt;/font&gt;" style="shape=partialRectangle;html=1;whiteSpace=wrap;connectable=0;strokeColor=inherit;overflow=hidden;fillColor=none;top=0;left=0;bottom=0;right=0;pointerEvents=1;fontSize=15;" parent="Dn_3NnZCM7g7BvhpWIRL-2" vertex="1">
          <mxGeometry x="420" width="140" height="40" as="geometry">
            <mxRectangle width="140" height="40" as="alternateBounds" />
          </mxGeometry>
        </mxCell>
        <mxCell id="Dn_3NnZCM7g7BvhpWIRL-7" value="&lt;font style=&quot;font-size: 15px;&quot;&gt;EGender&lt;/font&gt;" style="shape=partialRectangle;html=1;whiteSpace=wrap;connectable=0;strokeColor=inherit;overflow=hidden;fillColor=none;top=0;left=0;bottom=0;right=0;pointerEvents=1;fontSize=15;" parent="Dn_3NnZCM7g7BvhpWIRL-2" vertex="1">
          <mxGeometry x="560" width="140" height="40" as="geometry">
            <mxRectangle width="140" height="40" as="alternateBounds" />
          </mxGeometry>
        </mxCell>
        <mxCell id="Dn_3NnZCM7g7BvhpWIRL-8" value="&lt;font style=&quot;font-size: 15px;&quot;&gt;EAddress&lt;/font&gt;" style="shape=partialRectangle;html=1;whiteSpace=wrap;connectable=0;strokeColor=inherit;overflow=hidden;fillColor=none;top=0;left=0;bottom=0;right=0;pointerEvents=1;fontSize=15;" parent="Dn_3NnZCM7g7BvhpWIRL-2" vertex="1">
          <mxGeometry x="700" width="140" height="40" as="geometry">
            <mxRectangle width="140" height="40" as="alternateBounds" />
          </mxGeometry>
        </mxCell>
        <mxCell id="Dn_3NnZCM7g7BvhpWIRL-9" value="&lt;font style=&quot;font-size: 15px;&quot;&gt;EStartDate&lt;/font&gt;" style="shape=partialRectangle;html=1;whiteSpace=wrap;connectable=0;strokeColor=inherit;overflow=hidden;fillColor=none;top=0;left=0;bottom=0;right=0;pointerEvents=1;fontSize=15;" parent="Dn_3NnZCM7g7BvhpWIRL-2" vertex="1">
          <mxGeometry x="840" width="140" height="40" as="geometry">
            <mxRectangle width="140" height="40" as="alternateBounds" />
          </mxGeometry>
        </mxCell>
        <mxCell id="Dn_3NnZCM7g7BvhpWIRL-10" value="" style="shape=partialRectangle;html=1;whiteSpace=wrap;connectable=0;strokeColor=inherit;overflow=hidden;fillColor=none;top=0;left=0;bottom=0;right=0;pointerEvents=1;fontSize=15;" parent="Dn_3NnZCM7g7BvhpWIRL-2" vertex="1">
          <mxGeometry x="980" height="40" as="geometry">
            <mxRectangle height="40" as="alternateBounds" />
          </mxGeometry>
        </mxCell>
        <mxCell id="Dn_3NnZCM7g7BvhpWIRL-11" value="&lt;font style=&quot;font-size: 15px;&quot;&gt;EDegreeDate&lt;/font&gt;" style="shape=partialRectangle;html=1;whiteSpace=wrap;connectable=0;strokeColor=inherit;overflow=hidden;fillColor=none;top=0;left=0;bottom=0;right=0;pointerEvents=1;fontSize=15;" parent="Dn_3NnZCM7g7BvhpWIRL-2" vertex="1">
          <mxGeometry x="980" width="140" height="40" as="geometry">
            <mxRectangle width="140" height="40" as="alternateBounds" />
          </mxGeometry>
        </mxCell>
        <mxCell id="Dn_3NnZCM7g7BvhpWIRL-12" value="&lt;font style=&quot;font-size: 15px;&quot;&gt;Speciality&lt;/font&gt;" style="shape=partialRectangle;html=1;whiteSpace=wrap;connectable=0;strokeColor=inherit;overflow=hidden;fillColor=none;top=0;left=0;bottom=0;right=0;pointerEvents=1;fontSize=15;" parent="Dn_3NnZCM7g7BvhpWIRL-2" vertex="1">
          <mxGeometry x="1120" width="140" height="40" as="geometry">
            <mxRectangle width="140" height="40" as="alternateBounds" />
          </mxGeometry>
        </mxCell>
        <mxCell id="Dn_3NnZCM7g7BvhpWIRL-13" value="&lt;font style=&quot;font-size: 15px;&quot;&gt;JobType&lt;/font&gt;" style="shape=partialRectangle;html=1;whiteSpace=wrap;connectable=0;strokeColor=inherit;overflow=hidden;fillColor=none;top=0;left=0;bottom=0;right=0;pointerEvents=1;fontSize=15;" parent="Dn_3NnZCM7g7BvhpWIRL-2" vertex="1">
          <mxGeometry x="1260" width="140" height="40" as="geometry">
            <mxRectangle width="140" height="40" as="alternateBounds" />
          </mxGeometry>
        </mxCell>
        <mxCell id="Dn_3NnZCM7g7BvhpWIRL-14" value="DCode" style="shape=partialRectangle;html=1;whiteSpace=wrap;connectable=0;strokeColor=inherit;overflow=hidden;fillColor=none;top=0;left=0;bottom=0;right=0;pointerEvents=1;fontSize=15;" parent="Dn_3NnZCM7g7BvhpWIRL-2" vertex="1">
          <mxGeometry x="1400" width="140" height="40" as="geometry">
            <mxRectangle width="140" height="40" as="alternateBounds" />
          </mxGeometry>
        </mxCell>
        <mxCell id="Dn_3NnZCM7g7BvhpWIRL-15" value="" style="shape=table;startSize=0;container=1;collapsible=0;childLayout=tableLayout;fontSize=15;" parent="1" vertex="1">
          <mxGeometry x="50" y="675" width="420" height="40" as="geometry" />
        </mxCell>
        <mxCell id="Dn_3NnZCM7g7BvhpWIRL-16" value="" style="shape=tableRow;horizontal=0;startSize=0;swimlaneHead=0;swimlaneBody=0;strokeColor=inherit;top=0;left=0;bottom=0;right=0;collapsible=0;dropTarget=0;fillColor=none;points=[[0,0.5],[1,0.5]];portConstraint=eastwest;fontSize=15;" parent="Dn_3NnZCM7g7BvhpWIRL-15" vertex="1">
          <mxGeometry width="420" height="40" as="geometry" />
        </mxCell>
        <mxCell id="Dn_3NnZCM7g7BvhpWIRL-17" value="&lt;font style=&quot;font-size: 15px;&quot;&gt;&lt;b style=&quot;font-size: 15px;&quot;&gt;&lt;u style=&quot;font-size: 15px;&quot;&gt;DCode&lt;/u&gt;&lt;/b&gt;&lt;/font&gt;" style="shape=partialRectangle;html=1;whiteSpace=wrap;connectable=0;strokeColor=inherit;overflow=hidden;fillColor=none;top=0;left=0;bottom=0;right=0;pointerEvents=1;fontSize=15;" parent="Dn_3NnZCM7g7BvhpWIRL-16" vertex="1">
          <mxGeometry width="140" height="40" as="geometry">
            <mxRectangle width="140" height="40" as="alternateBounds" />
          </mxGeometry>
        </mxCell>
        <mxCell id="Dn_3NnZCM7g7BvhpWIRL-18" value="&lt;font style=&quot;font-size: 15px;&quot;&gt;DTitle&lt;/font&gt;" style="shape=partialRectangle;html=1;whiteSpace=wrap;connectable=0;strokeColor=inherit;overflow=hidden;fillColor=none;top=0;left=0;bottom=0;right=0;pointerEvents=1;fontSize=15;" parent="Dn_3NnZCM7g7BvhpWIRL-16" vertex="1">
          <mxGeometry x="140" width="140" height="40" as="geometry">
            <mxRectangle width="140" height="40" as="alternateBounds" />
          </mxGeometry>
        </mxCell>
        <mxCell id="Dn_3NnZCM7g7BvhpWIRL-19" value="&lt;font style=&quot;font-size: 15px;&quot;&gt;DeanCode&lt;/font&gt;" style="shape=partialRectangle;html=1;whiteSpace=wrap;connectable=0;strokeColor=inherit;overflow=hidden;fillColor=none;top=0;left=0;bottom=0;right=0;pointerEvents=1;fontSize=15;" parent="Dn_3NnZCM7g7BvhpWIRL-16" vertex="1">
          <mxGeometry x="280" width="140" height="40" as="geometry">
            <mxRectangle width="140" height="40" as="alternateBounds" />
          </mxGeometry>
        </mxCell>
        <mxCell id="Dn_3NnZCM7g7BvhpWIRL-20" value="" style="shape=table;startSize=0;container=1;collapsible=0;childLayout=tableLayout;fontSize=15;" parent="1" vertex="1">
          <mxGeometry x="50" y="1753" width="1120" height="40" as="geometry" />
        </mxCell>
        <mxCell id="Dn_3NnZCM7g7BvhpWIRL-21" value="" style="shape=tableRow;horizontal=0;startSize=0;swimlaneHead=0;swimlaneBody=0;strokeColor=inherit;top=0;left=0;bottom=0;right=0;collapsible=0;dropTarget=0;fillColor=none;points=[[0,0.5],[1,0.5]];portConstraint=eastwest;fontSize=15;" parent="Dn_3NnZCM7g7BvhpWIRL-20" vertex="1">
          <mxGeometry width="1120" height="40" as="geometry" />
        </mxCell>
        <mxCell id="Dn_3NnZCM7g7BvhpWIRL-22" value="&lt;b style=&quot;font-size: 15px;&quot;&gt;&lt;u style=&quot;font-size: 15px;&quot;&gt;PCode&lt;/u&gt;&lt;/b&gt;" style="shape=partialRectangle;html=1;whiteSpace=wrap;connectable=0;strokeColor=inherit;overflow=hidden;fillColor=none;top=0;left=0;bottom=0;right=0;pointerEvents=1;fontSize=15;" parent="Dn_3NnZCM7g7BvhpWIRL-21" vertex="1">
          <mxGeometry width="140" height="40" as="geometry">
            <mxRectangle width="140" height="40" as="alternateBounds" />
          </mxGeometry>
        </mxCell>
        <mxCell id="Dn_3NnZCM7g7BvhpWIRL-23" value="PFName" style="shape=partialRectangle;html=1;whiteSpace=wrap;connectable=0;strokeColor=inherit;overflow=hidden;fillColor=none;top=0;left=0;bottom=0;right=0;pointerEvents=1;fontSize=15;" parent="Dn_3NnZCM7g7BvhpWIRL-21" vertex="1">
          <mxGeometry x="140" width="140" height="40" as="geometry">
            <mxRectangle width="140" height="40" as="alternateBounds" />
          </mxGeometry>
        </mxCell>
        <mxCell id="Dn_3NnZCM7g7BvhpWIRL-24" value="PLName" style="shape=partialRectangle;html=1;whiteSpace=wrap;connectable=0;strokeColor=inherit;overflow=hidden;fillColor=none;top=0;left=0;bottom=0;right=0;pointerEvents=1;fontSize=15;" parent="Dn_3NnZCM7g7BvhpWIRL-21" vertex="1">
          <mxGeometry x="280" width="140" height="40" as="geometry">
            <mxRectangle width="140" height="40" as="alternateBounds" />
          </mxGeometry>
        </mxCell>
        <mxCell id="Dn_3NnZCM7g7BvhpWIRL-25" value="PDoB" style="shape=partialRectangle;html=1;whiteSpace=wrap;connectable=0;strokeColor=inherit;overflow=hidden;fillColor=none;top=0;left=0;bottom=0;right=0;pointerEvents=1;fontSize=15;" parent="Dn_3NnZCM7g7BvhpWIRL-21" vertex="1">
          <mxGeometry x="420" width="140" height="40" as="geometry">
            <mxRectangle width="140" height="40" as="alternateBounds" />
          </mxGeometry>
        </mxCell>
        <mxCell id="Dn_3NnZCM7g7BvhpWIRL-26" value="PGender" style="shape=partialRectangle;html=1;whiteSpace=wrap;connectable=0;strokeColor=inherit;overflow=hidden;fillColor=none;top=0;left=0;bottom=0;right=0;pointerEvents=1;fontSize=15;" parent="Dn_3NnZCM7g7BvhpWIRL-21" vertex="1">
          <mxGeometry x="560" width="140" height="40" as="geometry">
            <mxRectangle width="140" height="40" as="alternateBounds" />
          </mxGeometry>
        </mxCell>
        <mxCell id="Dn_3NnZCM7g7BvhpWIRL-27" value="PAddress" style="shape=partialRectangle;html=1;whiteSpace=wrap;connectable=0;strokeColor=inherit;overflow=hidden;fillColor=none;top=0;left=0;bottom=0;right=0;pointerEvents=1;fontSize=15;" parent="Dn_3NnZCM7g7BvhpWIRL-21" vertex="1">
          <mxGeometry x="700" width="140" height="40" as="geometry">
            <mxRectangle width="140" height="40" as="alternateBounds" />
          </mxGeometry>
        </mxCell>
        <mxCell id="Dn_3NnZCM7g7BvhpWIRL-28" value="PPhone" style="shape=partialRectangle;html=1;whiteSpace=wrap;connectable=0;strokeColor=inherit;overflow=hidden;fillColor=none;top=0;left=0;bottom=0;right=0;pointerEvents=1;fontSize=15;" parent="Dn_3NnZCM7g7BvhpWIRL-21" vertex="1">
          <mxGeometry x="840" width="140" height="40" as="geometry">
            <mxRectangle width="140" height="40" as="alternateBounds" />
          </mxGeometry>
        </mxCell>
        <mxCell id="Dn_3NnZCM7g7BvhpWIRL-29" value="PTypeCode" style="shape=partialRectangle;html=1;whiteSpace=wrap;connectable=0;strokeColor=inherit;overflow=hidden;fillColor=none;top=0;left=0;bottom=0;right=0;pointerEvents=1;fontSize=15;" parent="Dn_3NnZCM7g7BvhpWIRL-21" vertex="1">
          <mxGeometry x="980" width="140" height="40" as="geometry">
            <mxRectangle width="140" height="40" as="alternateBounds" />
          </mxGeometry>
        </mxCell>
        <mxCell id="Dn_3NnZCM7g7BvhpWIRL-30" value="" style="shape=table;startSize=0;container=1;collapsible=0;childLayout=tableLayout;fontSize=15;flipV=0;" parent="1" vertex="1">
          <mxGeometry x="50" y="1169" width="980" height="40" as="geometry" />
        </mxCell>
        <mxCell id="Dn_3NnZCM7g7BvhpWIRL-31" value="" style="shape=tableRow;horizontal=0;startSize=0;swimlaneHead=0;swimlaneBody=0;strokeColor=inherit;top=0;left=0;bottom=0;right=0;collapsible=0;dropTarget=0;fillColor=none;points=[[0,0.5],[1,0.5]];portConstraint=eastwest;fontSize=15;" parent="Dn_3NnZCM7g7BvhpWIRL-30" vertex="1">
          <mxGeometry width="980" height="40" as="geometry" />
        </mxCell>
        <mxCell id="Dn_3NnZCM7g7BvhpWIRL-32" value="ExaminationDate" style="shape=partialRectangle;html=1;whiteSpace=wrap;connectable=0;strokeColor=inherit;overflow=hidden;fillColor=none;top=0;left=0;bottom=0;right=0;pointerEvents=1;fontSize=15;fontStyle=5" parent="Dn_3NnZCM7g7BvhpWIRL-31" vertex="1">
          <mxGeometry width="140" height="40" as="geometry">
            <mxRectangle width="140" height="40" as="alternateBounds" />
          </mxGeometry>
        </mxCell>
        <mxCell id="Dn_3NnZCM7g7BvhpWIRL-33" value="PCode" style="shape=partialRectangle;html=1;whiteSpace=wrap;connectable=0;strokeColor=inherit;overflow=hidden;fillColor=none;top=0;left=0;bottom=0;right=0;pointerEvents=1;fontSize=15;fontStyle=5" parent="Dn_3NnZCM7g7BvhpWIRL-31" vertex="1">
          <mxGeometry x="140" width="140" height="40" as="geometry">
            <mxRectangle width="140" height="40" as="alternateBounds" />
          </mxGeometry>
        </mxCell>
        <mxCell id="Dn_3NnZCM7g7BvhpWIRL-34" value="&lt;b style=&quot;border-color: var(--border-color);&quot;&gt;&lt;u style=&quot;border-color: var(--border-color);&quot;&gt;OUTPCode&lt;/u&gt;&lt;/b&gt;" style="shape=partialRectangle;html=1;whiteSpace=wrap;connectable=0;strokeColor=inherit;overflow=hidden;fillColor=none;top=0;left=0;bottom=0;right=0;pointerEvents=1;fontSize=15;fontStyle=5" parent="Dn_3NnZCM7g7BvhpWIRL-31" vertex="1">
          <mxGeometry x="280" width="140" height="40" as="geometry">
            <mxRectangle width="140" height="40" as="alternateBounds" />
          </mxGeometry>
        </mxCell>
        <mxCell id="Dn_3NnZCM7g7BvhpWIRL-35" value="DrCode" style="shape=partialRectangle;html=1;whiteSpace=wrap;connectable=0;strokeColor=inherit;overflow=hidden;fillColor=none;top=0;left=0;bottom=0;right=0;pointerEvents=1;fontSize=15;fontStyle=5" parent="Dn_3NnZCM7g7BvhpWIRL-31" vertex="1">
          <mxGeometry x="420" width="140" height="40" as="geometry">
            <mxRectangle width="140" height="40" as="alternateBounds" />
          </mxGeometry>
        </mxCell>
        <mxCell id="Dn_3NnZCM7g7BvhpWIRL-36" value="OutDiagnosis" style="shape=partialRectangle;html=1;whiteSpace=wrap;connectable=0;strokeColor=inherit;overflow=hidden;fillColor=none;top=0;left=0;bottom=0;right=0;pointerEvents=1;fontSize=15;" parent="Dn_3NnZCM7g7BvhpWIRL-31" vertex="1">
          <mxGeometry x="560" width="140" height="40" as="geometry">
            <mxRectangle width="140" height="40" as="alternateBounds" />
          </mxGeometry>
        </mxCell>
        <mxCell id="Dn_3NnZCM7g7BvhpWIRL-37" value="ExmNextDate" style="shape=partialRectangle;html=1;whiteSpace=wrap;connectable=0;strokeColor=inherit;overflow=hidden;fillColor=none;top=0;left=0;bottom=0;right=0;pointerEvents=1;fontSize=15;" parent="Dn_3NnZCM7g7BvhpWIRL-31" vertex="1">
          <mxGeometry x="700" width="140" height="40" as="geometry">
            <mxRectangle width="140" height="40" as="alternateBounds" />
          </mxGeometry>
        </mxCell>
        <mxCell id="Dn_3NnZCM7g7BvhpWIRL-38" value="ExmFee" style="shape=partialRectangle;html=1;whiteSpace=wrap;connectable=0;strokeColor=inherit;overflow=hidden;fillColor=none;top=0;left=0;bottom=0;right=0;pointerEvents=1;fontSize=15;" parent="Dn_3NnZCM7g7BvhpWIRL-31" vertex="1">
          <mxGeometry x="840" width="140" height="40" as="geometry">
            <mxRectangle width="140" height="40" as="alternateBounds" />
          </mxGeometry>
        </mxCell>
        <mxCell id="Dn_3NnZCM7g7BvhpWIRL-39" value="" style="shape=table;startSize=0;container=1;collapsible=0;childLayout=tableLayout;fontSize=15;flipV=0;" parent="1" vertex="1">
          <mxGeometry x="50" y="915" width="280" height="40" as="geometry" />
        </mxCell>
        <mxCell id="Dn_3NnZCM7g7BvhpWIRL-40" value="" style="shape=tableRow;horizontal=0;startSize=0;swimlaneHead=0;swimlaneBody=0;strokeColor=inherit;top=0;left=0;bottom=0;right=0;collapsible=0;dropTarget=0;fillColor=none;points=[[0,0.5],[1,0.5]];portConstraint=eastwest;fontSize=15;" parent="Dn_3NnZCM7g7BvhpWIRL-39" vertex="1">
          <mxGeometry width="280" height="40" as="geometry" />
        </mxCell>
        <mxCell id="Dn_3NnZCM7g7BvhpWIRL-41" value="&lt;b style=&quot;font-size: 15px;&quot;&gt;&lt;u style=&quot;font-size: 15px;&quot;&gt;PCode&lt;/u&gt;&lt;/b&gt;" style="shape=partialRectangle;html=1;whiteSpace=wrap;connectable=0;strokeColor=inherit;overflow=hidden;fillColor=none;top=0;left=0;bottom=0;right=0;pointerEvents=1;fontSize=15;" parent="Dn_3NnZCM7g7BvhpWIRL-40" vertex="1">
          <mxGeometry width="140" height="40" as="geometry">
            <mxRectangle width="140" height="40" as="alternateBounds" />
          </mxGeometry>
        </mxCell>
        <mxCell id="Dn_3NnZCM7g7BvhpWIRL-42" value="&lt;b&gt;&lt;u&gt;OUTPCode&lt;/u&gt;&lt;/b&gt;" style="shape=partialRectangle;html=1;whiteSpace=wrap;connectable=0;strokeColor=inherit;overflow=hidden;fillColor=none;top=0;left=0;bottom=0;right=0;pointerEvents=1;fontSize=15;" parent="Dn_3NnZCM7g7BvhpWIRL-40" vertex="1">
          <mxGeometry x="140" width="140" height="40" as="geometry">
            <mxRectangle width="140" height="40" as="alternateBounds" />
          </mxGeometry>
        </mxCell>
        <mxCell id="Dn_3NnZCM7g7BvhpWIRL-43" value="" style="shape=table;startSize=0;container=1;collapsible=0;childLayout=tableLayout;fontSize=15;" parent="1" vertex="1">
          <mxGeometry x="50" y="1635" width="700" height="40" as="geometry" />
        </mxCell>
        <mxCell id="Dn_3NnZCM7g7BvhpWIRL-44" value="" style="shape=tableRow;horizontal=0;startSize=0;swimlaneHead=0;swimlaneBody=0;strokeColor=inherit;top=0;left=0;bottom=0;right=0;collapsible=0;dropTarget=0;fillColor=none;points=[[0,0.5],[1,0.5]];portConstraint=eastwest;fontSize=15;" parent="Dn_3NnZCM7g7BvhpWIRL-43" vertex="1">
          <mxGeometry width="700" height="40" as="geometry" />
        </mxCell>
        <mxCell id="Dn_3NnZCM7g7BvhpWIRL-45" value="&lt;b style=&quot;font-size: 15px;&quot;&gt;&lt;u style=&quot;font-size: 15px;&quot;&gt;MCode&lt;/u&gt;&lt;/b&gt;" style="shape=partialRectangle;html=1;whiteSpace=wrap;connectable=0;strokeColor=inherit;overflow=hidden;fillColor=none;top=0;left=0;bottom=0;right=0;pointerEvents=1;fontSize=15;flipV=0;" parent="Dn_3NnZCM7g7BvhpWIRL-44" vertex="1">
          <mxGeometry width="140" height="40" as="geometry">
            <mxRectangle width="140" height="40" as="alternateBounds" />
          </mxGeometry>
        </mxCell>
        <mxCell id="Dn_3NnZCM7g7BvhpWIRL-46" value="MExpDate" style="shape=partialRectangle;html=1;whiteSpace=wrap;connectable=0;strokeColor=inherit;overflow=hidden;fillColor=none;top=0;left=0;bottom=0;right=0;pointerEvents=1;fontSize=15;flipV=0;" parent="Dn_3NnZCM7g7BvhpWIRL-44" vertex="1">
          <mxGeometry x="140" width="140" height="40" as="geometry">
            <mxRectangle width="140" height="40" as="alternateBounds" />
          </mxGeometry>
        </mxCell>
        <mxCell id="Dn_3NnZCM7g7BvhpWIRL-47" value="MName" style="shape=partialRectangle;html=1;whiteSpace=wrap;connectable=0;strokeColor=inherit;overflow=hidden;fillColor=none;top=0;left=0;bottom=0;right=0;pointerEvents=1;fontSize=15;flipV=0;" parent="Dn_3NnZCM7g7BvhpWIRL-44" vertex="1">
          <mxGeometry x="280" width="140" height="40" as="geometry">
            <mxRectangle width="140" height="40" as="alternateBounds" />
          </mxGeometry>
        </mxCell>
        <mxCell id="Dn_3NnZCM7g7BvhpWIRL-48" value="MPrice" style="shape=partialRectangle;html=1;whiteSpace=wrap;connectable=0;strokeColor=inherit;overflow=hidden;fillColor=none;top=0;left=0;bottom=0;right=0;pointerEvents=1;fontSize=15;flipV=0;" parent="Dn_3NnZCM7g7BvhpWIRL-44" vertex="1">
          <mxGeometry x="420" width="140" height="40" as="geometry">
            <mxRectangle width="140" height="40" as="alternateBounds" />
          </mxGeometry>
        </mxCell>
        <mxCell id="Dn_3NnZCM7g7BvhpWIRL-49" value="MEffect" style="shape=partialRectangle;html=1;whiteSpace=wrap;connectable=0;strokeColor=inherit;overflow=hidden;fillColor=none;top=0;left=0;bottom=0;right=0;pointerEvents=1;fontSize=15;" parent="Dn_3NnZCM7g7BvhpWIRL-44" vertex="1">
          <mxGeometry x="560" width="140" height="40" as="geometry">
            <mxRectangle width="140" height="40" as="alternateBounds" />
          </mxGeometry>
        </mxCell>
        <mxCell id="Dn_3NnZCM7g7BvhpWIRL-50" value="" style="shape=table;startSize=0;container=1;collapsible=0;childLayout=tableLayout;fontSize=15;flipV=0;" parent="1" vertex="1">
          <mxGeometry x="50" y="1033.83" width="1120" height="46.17000000000007" as="geometry" />
        </mxCell>
        <mxCell id="Dn_3NnZCM7g7BvhpWIRL-51" value="" style="shape=tableRow;horizontal=0;startSize=0;swimlaneHead=0;swimlaneBody=0;strokeColor=inherit;top=0;left=0;bottom=0;right=0;collapsible=0;dropTarget=0;fillColor=none;points=[[0,0.5],[1,0.5]];portConstraint=eastwest;fontSize=15;" parent="Dn_3NnZCM7g7BvhpWIRL-50" vertex="1">
          <mxGeometry width="1120" height="46" as="geometry" />
        </mxCell>
        <mxCell id="Dn_3NnZCM7g7BvhpWIRL-52" value="TreatmentStartDate" style="shape=partialRectangle;html=1;whiteSpace=wrap;connectable=0;strokeColor=inherit;overflow=hidden;fillColor=none;top=0;left=0;bottom=0;right=0;pointerEvents=1;fontSize=15;fontStyle=5" parent="Dn_3NnZCM7g7BvhpWIRL-51" vertex="1">
          <mxGeometry width="140" height="46" as="geometry">
            <mxRectangle width="140" height="46" as="alternateBounds" />
          </mxGeometry>
        </mxCell>
        <mxCell id="Dn_3NnZCM7g7BvhpWIRL-53" value="PCode" style="shape=partialRectangle;html=1;whiteSpace=wrap;connectable=0;strokeColor=inherit;overflow=hidden;fillColor=none;top=0;left=0;bottom=0;right=0;pointerEvents=1;fontSize=15;fontStyle=5" parent="Dn_3NnZCM7g7BvhpWIRL-51" vertex="1">
          <mxGeometry x="140" width="140" height="46" as="geometry">
            <mxRectangle width="140" height="46" as="alternateBounds" />
          </mxGeometry>
        </mxCell>
        <mxCell id="Dn_3NnZCM7g7BvhpWIRL-54" value="&lt;u style=&quot;border-color: var(--border-color); font-weight: 400;&quot;&gt;&lt;b style=&quot;border-color: var(--border-color);&quot;&gt;INPCode&lt;/b&gt;&lt;/u&gt;" style="shape=partialRectangle;html=1;whiteSpace=wrap;connectable=0;strokeColor=inherit;overflow=hidden;fillColor=none;top=0;left=0;bottom=0;right=0;pointerEvents=1;fontSize=15;fontStyle=5" parent="Dn_3NnZCM7g7BvhpWIRL-51" vertex="1">
          <mxGeometry x="280" width="140" height="46" as="geometry">
            <mxRectangle width="140" height="46" as="alternateBounds" />
          </mxGeometry>
        </mxCell>
        <mxCell id="Dn_3NnZCM7g7BvhpWIRL-55" value="&lt;u style=&quot;border-color: var(--border-color); font-weight: 400;&quot;&gt;&lt;b style=&quot;border-color: var(--border-color);&quot;&gt;AdmissionDate&lt;/b&gt;&lt;/u&gt;" style="shape=partialRectangle;html=1;whiteSpace=wrap;connectable=0;strokeColor=inherit;overflow=hidden;fillColor=none;top=0;left=0;bottom=0;right=0;pointerEvents=1;fontSize=15;fontStyle=5" parent="Dn_3NnZCM7g7BvhpWIRL-51" vertex="1">
          <mxGeometry x="420" width="140" height="46" as="geometry">
            <mxRectangle width="140" height="46" as="alternateBounds" />
          </mxGeometry>
        </mxCell>
        <mxCell id="Dn_3NnZCM7g7BvhpWIRL-56" value="DrCode" style="shape=partialRectangle;html=1;whiteSpace=wrap;connectable=0;strokeColor=inherit;overflow=hidden;fillColor=none;top=0;left=0;bottom=0;right=0;pointerEvents=1;fontSize=15;fontStyle=5" parent="Dn_3NnZCM7g7BvhpWIRL-51" vertex="1">
          <mxGeometry x="560" width="140" height="46" as="geometry">
            <mxRectangle width="140" height="46" as="alternateBounds" />
          </mxGeometry>
        </mxCell>
        <mxCell id="Dn_3NnZCM7g7BvhpWIRL-57" value="InResult" style="shape=partialRectangle;html=1;whiteSpace=wrap;connectable=0;strokeColor=inherit;overflow=hidden;fillColor=none;top=0;left=0;bottom=0;right=0;pointerEvents=1;fontSize=15;" parent="Dn_3NnZCM7g7BvhpWIRL-51" vertex="1">
          <mxGeometry x="700" width="140" height="46" as="geometry">
            <mxRectangle width="140" height="46" as="alternateBounds" />
          </mxGeometry>
        </mxCell>
        <mxCell id="Dn_3NnZCM7g7BvhpWIRL-58" value="DateOfDischarge" style="shape=partialRectangle;html=1;whiteSpace=wrap;connectable=0;strokeColor=inherit;overflow=hidden;fillColor=none;top=0;left=0;bottom=0;right=0;pointerEvents=1;fontSize=15;" parent="Dn_3NnZCM7g7BvhpWIRL-51" vertex="1">
          <mxGeometry x="840" width="140" height="46" as="geometry">
            <mxRectangle width="140" height="46" as="alternateBounds" />
          </mxGeometry>
        </mxCell>
        <mxCell id="Dn_3NnZCM7g7BvhpWIRL-59" value="TreatEndDate" style="shape=partialRectangle;html=1;whiteSpace=wrap;connectable=0;strokeColor=inherit;overflow=hidden;fillColor=none;top=0;left=0;bottom=0;right=0;pointerEvents=1;fontSize=15;" parent="Dn_3NnZCM7g7BvhpWIRL-51" vertex="1">
          <mxGeometry x="980" width="140" height="46" as="geometry">
            <mxRectangle width="140" height="46" as="alternateBounds" />
          </mxGeometry>
        </mxCell>
        <mxCell id="Dn_3NnZCM7g7BvhpWIRL-60" value="" style="shape=table;startSize=0;container=1;collapsible=0;childLayout=tableLayout;fontSize=15;fontStyle=5" parent="1" vertex="1">
          <mxGeometry x="50" y="1272.91" width="700" height="40" as="geometry" />
        </mxCell>
        <mxCell id="Dn_3NnZCM7g7BvhpWIRL-61" value="" style="shape=tableRow;horizontal=0;startSize=0;swimlaneHead=0;swimlaneBody=0;strokeColor=inherit;top=0;left=0;bottom=0;right=0;collapsible=0;dropTarget=0;fillColor=none;points=[[0,0.5],[1,0.5]];portConstraint=eastwest;fontSize=15;fontStyle=5" parent="Dn_3NnZCM7g7BvhpWIRL-60" vertex="1">
          <mxGeometry width="700" height="40" as="geometry" />
        </mxCell>
        <mxCell id="Dn_3NnZCM7g7BvhpWIRL-62" value="MCode" style="shape=partialRectangle;html=1;whiteSpace=wrap;connectable=0;strokeColor=inherit;overflow=hidden;fillColor=none;top=0;left=0;bottom=0;right=0;pointerEvents=1;fontSize=15;fontStyle=5" parent="Dn_3NnZCM7g7BvhpWIRL-61" vertex="1">
          <mxGeometry width="140" height="40" as="geometry">
            <mxRectangle width="140" height="40" as="alternateBounds" />
          </mxGeometry>
        </mxCell>
        <mxCell id="Dn_3NnZCM7g7BvhpWIRL-63" value="ExaminationDate" style="shape=partialRectangle;html=1;whiteSpace=wrap;connectable=0;strokeColor=inherit;overflow=hidden;fillColor=none;top=0;left=0;bottom=0;right=0;pointerEvents=1;fontSize=15;fontStyle=5" parent="Dn_3NnZCM7g7BvhpWIRL-61" vertex="1">
          <mxGeometry x="140" width="140" height="40" as="geometry">
            <mxRectangle width="140" height="40" as="alternateBounds" />
          </mxGeometry>
        </mxCell>
        <mxCell id="Dn_3NnZCM7g7BvhpWIRL-64" value="PCode" style="shape=partialRectangle;html=1;whiteSpace=wrap;connectable=0;strokeColor=inherit;overflow=hidden;fillColor=none;top=0;left=0;bottom=0;right=0;pointerEvents=1;fontSize=15;fontStyle=5" parent="Dn_3NnZCM7g7BvhpWIRL-61" vertex="1">
          <mxGeometry x="280" width="140" height="40" as="geometry">
            <mxRectangle width="140" height="40" as="alternateBounds" />
          </mxGeometry>
        </mxCell>
        <mxCell id="Dn_3NnZCM7g7BvhpWIRL-65" value="&lt;b style=&quot;border-color: var(--border-color);&quot;&gt;&lt;u style=&quot;border-color: var(--border-color);&quot;&gt;OUTPCode&lt;/u&gt;&lt;/b&gt;" style="shape=partialRectangle;html=1;whiteSpace=wrap;connectable=0;strokeColor=inherit;overflow=hidden;fillColor=none;top=0;left=0;bottom=0;right=0;pointerEvents=1;fontSize=15;fontStyle=5" parent="Dn_3NnZCM7g7BvhpWIRL-61" vertex="1">
          <mxGeometry x="420" width="140" height="40" as="geometry">
            <mxRectangle width="140" height="40" as="alternateBounds" />
          </mxGeometry>
        </mxCell>
        <mxCell id="Dn_3NnZCM7g7BvhpWIRL-66" value="DrCode" style="shape=partialRectangle;html=1;whiteSpace=wrap;connectable=0;strokeColor=inherit;overflow=hidden;fillColor=none;top=0;left=0;bottom=0;right=0;pointerEvents=1;fontSize=15;fontStyle=5" parent="Dn_3NnZCM7g7BvhpWIRL-61" vertex="1">
          <mxGeometry x="560" width="140" height="40" as="geometry">
            <mxRectangle width="140" height="40" as="alternateBounds" />
          </mxGeometry>
        </mxCell>
        <mxCell id="Dn_3NnZCM7g7BvhpWIRL-67" value="" style="shape=table;startSize=0;container=1;collapsible=0;childLayout=tableLayout;fontSize=15;" parent="1" vertex="1">
          <mxGeometry x="50" y="1875" width="560" height="40" as="geometry" />
        </mxCell>
        <mxCell id="Dn_3NnZCM7g7BvhpWIRL-68" value="" style="shape=tableRow;horizontal=0;startSize=0;swimlaneHead=0;swimlaneBody=0;strokeColor=inherit;top=0;left=0;bottom=0;right=0;collapsible=0;dropTarget=0;fillColor=none;points=[[0,0.5],[1,0.5]];portConstraint=eastwest;fontSize=15;" parent="Dn_3NnZCM7g7BvhpWIRL-67" vertex="1">
          <mxGeometry width="560" height="40" as="geometry" />
        </mxCell>
        <mxCell id="Dn_3NnZCM7g7BvhpWIRL-69" value="&lt;b style=&quot;font-size: 15px;&quot;&gt;&lt;u style=&quot;font-size: 15px;&quot;&gt;PVCode&lt;/u&gt;&lt;/b&gt;" style="shape=partialRectangle;html=1;whiteSpace=wrap;connectable=0;strokeColor=inherit;overflow=hidden;fillColor=none;top=0;left=0;bottom=0;right=0;pointerEvents=1;fontSize=15;" parent="Dn_3NnZCM7g7BvhpWIRL-68" vertex="1">
          <mxGeometry width="140" height="40" as="geometry">
            <mxRectangle width="140" height="40" as="alternateBounds" />
          </mxGeometry>
        </mxCell>
        <mxCell id="Dn_3NnZCM7g7BvhpWIRL-70" value="PVName" style="shape=partialRectangle;html=1;whiteSpace=wrap;connectable=0;strokeColor=inherit;overflow=hidden;fillColor=none;top=0;left=0;bottom=0;right=0;pointerEvents=1;fontSize=15;" parent="Dn_3NnZCM7g7BvhpWIRL-68" vertex="1">
          <mxGeometry x="140" width="140" height="40" as="geometry">
            <mxRectangle width="140" height="40" as="alternateBounds" />
          </mxGeometry>
        </mxCell>
        <mxCell id="Dn_3NnZCM7g7BvhpWIRL-71" value="PVAddress" style="shape=partialRectangle;html=1;whiteSpace=wrap;connectable=0;strokeColor=inherit;overflow=hidden;fillColor=none;top=0;left=0;bottom=0;right=0;pointerEvents=1;fontSize=15;" parent="Dn_3NnZCM7g7BvhpWIRL-68" vertex="1">
          <mxGeometry x="280" width="140" height="40" as="geometry">
            <mxRectangle width="140" height="40" as="alternateBounds" />
          </mxGeometry>
        </mxCell>
        <mxCell id="Dn_3NnZCM7g7BvhpWIRL-72" value="PVPhone" style="shape=partialRectangle;html=1;whiteSpace=wrap;connectable=0;strokeColor=inherit;overflow=hidden;fillColor=none;top=0;left=0;bottom=0;right=0;pointerEvents=1;fontSize=15;" parent="Dn_3NnZCM7g7BvhpWIRL-68" vertex="1">
          <mxGeometry x="420" width="140" height="40" as="geometry">
            <mxRectangle width="140" height="40" as="alternateBounds" />
          </mxGeometry>
        </mxCell>
        <mxCell id="Dn_3NnZCM7g7BvhpWIRL-73" value="" style="shape=table;startSize=0;container=1;collapsible=0;childLayout=tableLayout;fontSize=15;" parent="1" vertex="1">
          <mxGeometry x="50" y="795" width="980" height="40" as="geometry" />
        </mxCell>
        <mxCell id="Dn_3NnZCM7g7BvhpWIRL-74" value="" style="shape=tableRow;horizontal=0;startSize=0;swimlaneHead=0;swimlaneBody=0;strokeColor=inherit;top=0;left=0;bottom=0;right=0;collapsible=0;dropTarget=0;fillColor=none;points=[[0,0.5],[1,0.5]];portConstraint=eastwest;fontSize=15;" parent="Dn_3NnZCM7g7BvhpWIRL-73" vertex="1">
          <mxGeometry width="980" height="40" as="geometry" />
        </mxCell>
        <mxCell id="Dn_3NnZCM7g7BvhpWIRL-75" value="&lt;font style=&quot;font-size: 15px;&quot;&gt;&lt;b style=&quot;font-size: 15px;&quot;&gt;&lt;u style=&quot;font-size: 15px;&quot;&gt;PCode&lt;/u&gt;&lt;/b&gt;&lt;/font&gt;" style="shape=partialRectangle;html=1;whiteSpace=wrap;connectable=0;strokeColor=inherit;overflow=hidden;fillColor=none;top=0;left=0;bottom=0;right=0;pointerEvents=1;fontSize=15;" parent="Dn_3NnZCM7g7BvhpWIRL-74" vertex="1">
          <mxGeometry width="140" height="40" as="geometry">
            <mxRectangle width="140" height="40" as="alternateBounds" />
          </mxGeometry>
        </mxCell>
        <mxCell id="Dn_3NnZCM7g7BvhpWIRL-76" value="&lt;font style=&quot;font-size: 15px;&quot;&gt;&lt;u&gt;&lt;b&gt;INPCode&lt;/b&gt;&lt;/u&gt;&lt;/font&gt;" style="shape=partialRectangle;html=1;whiteSpace=wrap;connectable=0;strokeColor=inherit;overflow=hidden;fillColor=none;top=0;left=0;bottom=0;right=0;pointerEvents=1;fontSize=15;" parent="Dn_3NnZCM7g7BvhpWIRL-74" vertex="1">
          <mxGeometry x="140" width="140" height="40" as="geometry">
            <mxRectangle width="140" height="40" as="alternateBounds" />
          </mxGeometry>
        </mxCell>
        <mxCell id="Dn_3NnZCM7g7BvhpWIRL-77" value="&lt;u&gt;&lt;b&gt;AdmissionDate&lt;/b&gt;&lt;/u&gt;" style="shape=partialRectangle;html=1;whiteSpace=wrap;connectable=0;strokeColor=inherit;overflow=hidden;fillColor=none;top=0;left=0;bottom=0;right=0;pointerEvents=1;fontSize=15;" parent="Dn_3NnZCM7g7BvhpWIRL-74" vertex="1">
          <mxGeometry x="280" width="140" height="40" as="geometry">
            <mxRectangle width="140" height="40" as="alternateBounds" />
          </mxGeometry>
        </mxCell>
        <mxCell id="Dn_3NnZCM7g7BvhpWIRL-78" value="InFee" style="shape=partialRectangle;html=1;whiteSpace=wrap;connectable=0;strokeColor=inherit;overflow=hidden;fillColor=none;top=0;left=0;bottom=0;right=0;pointerEvents=1;fontSize=15;" parent="Dn_3NnZCM7g7BvhpWIRL-74" vertex="1">
          <mxGeometry x="420" width="140" height="40" as="geometry">
            <mxRectangle width="140" height="40" as="alternateBounds" />
          </mxGeometry>
        </mxCell>
        <mxCell id="Dn_3NnZCM7g7BvhpWIRL-79" value="Sickroom" style="shape=partialRectangle;html=1;whiteSpace=wrap;connectable=0;strokeColor=inherit;overflow=hidden;fillColor=none;top=0;left=0;bottom=0;right=0;pointerEvents=1;fontSize=15;" parent="Dn_3NnZCM7g7BvhpWIRL-74" vertex="1">
          <mxGeometry x="560" width="140" height="40" as="geometry">
            <mxRectangle width="140" height="40" as="alternateBounds" />
          </mxGeometry>
        </mxCell>
        <mxCell id="Dn_3NnZCM7g7BvhpWIRL-80" value="InDiagnosis" style="shape=partialRectangle;html=1;whiteSpace=wrap;connectable=0;strokeColor=inherit;overflow=hidden;fillColor=none;top=0;left=0;bottom=0;right=0;pointerEvents=1;fontSize=15;" parent="Dn_3NnZCM7g7BvhpWIRL-74" vertex="1">
          <mxGeometry x="700" width="140" height="40" as="geometry">
            <mxRectangle width="140" height="40" as="alternateBounds" />
          </mxGeometry>
        </mxCell>
        <mxCell id="Dn_3NnZCM7g7BvhpWIRL-81" value="&lt;font style=&quot;font-size: 15px;&quot;&gt;NurseCode&lt;/font&gt;" style="shape=partialRectangle;html=1;whiteSpace=wrap;connectable=0;strokeColor=inherit;overflow=hidden;fillColor=none;top=0;left=0;bottom=0;right=0;pointerEvents=1;fontSize=15;" parent="Dn_3NnZCM7g7BvhpWIRL-74" vertex="1">
          <mxGeometry x="840" width="140" height="40" as="geometry">
            <mxRectangle width="140" height="40" as="alternateBounds" />
          </mxGeometry>
        </mxCell>
        <mxCell id="Dn_3NnZCM7g7BvhpWIRL-82" value="" style="shape=table;startSize=0;container=1;collapsible=0;childLayout=tableLayout;fontSize=15;fontStyle=5" parent="1" vertex="1">
          <mxGeometry x="50" y="1395" width="280" height="40" as="geometry" />
        </mxCell>
        <mxCell id="Dn_3NnZCM7g7BvhpWIRL-83" value="" style="shape=tableRow;horizontal=0;startSize=0;swimlaneHead=0;swimlaneBody=0;strokeColor=inherit;top=0;left=0;bottom=0;right=0;collapsible=0;dropTarget=0;fillColor=none;points=[[0,0.5],[1,0.5]];portConstraint=eastwest;fontSize=15;fontStyle=5" parent="Dn_3NnZCM7g7BvhpWIRL-82" vertex="1">
          <mxGeometry width="280" height="40" as="geometry" />
        </mxCell>
        <mxCell id="Dn_3NnZCM7g7BvhpWIRL-84" value="ImportedDate" style="shape=partialRectangle;html=1;whiteSpace=wrap;connectable=0;strokeColor=inherit;overflow=hidden;fillColor=none;top=0;left=0;bottom=0;right=0;pointerEvents=1;fontSize=15;flipV=0;fontStyle=5" parent="Dn_3NnZCM7g7BvhpWIRL-83" vertex="1">
          <mxGeometry width="140" height="40" as="geometry">
            <mxRectangle width="140" height="40" as="alternateBounds" />
          </mxGeometry>
        </mxCell>
        <mxCell id="Dn_3NnZCM7g7BvhpWIRL-85" value="PVCode" style="shape=partialRectangle;html=1;whiteSpace=wrap;connectable=0;strokeColor=inherit;overflow=hidden;fillColor=none;top=0;left=0;bottom=0;right=0;pointerEvents=1;fontSize=15;fontStyle=5" parent="Dn_3NnZCM7g7BvhpWIRL-83" vertex="1">
          <mxGeometry x="140" width="140" height="40" as="geometry">
            <mxRectangle width="140" height="40" as="alternateBounds" />
          </mxGeometry>
        </mxCell>
        <mxCell id="Dn_3NnZCM7g7BvhpWIRL-86" value="" style="shape=table;startSize=0;container=1;collapsible=0;childLayout=tableLayout;fontSize=15;fontStyle=5" parent="1" vertex="1">
          <mxGeometry x="50" y="1515" width="840" height="40" as="geometry" />
        </mxCell>
        <mxCell id="Dn_3NnZCM7g7BvhpWIRL-87" value="" style="shape=tableRow;horizontal=0;startSize=0;swimlaneHead=0;swimlaneBody=0;strokeColor=inherit;top=0;left=0;bottom=0;right=0;collapsible=0;dropTarget=0;fillColor=none;points=[[0,0.5],[1,0.5]];portConstraint=eastwest;fontSize=15;fontStyle=5" parent="Dn_3NnZCM7g7BvhpWIRL-86" vertex="1">
          <mxGeometry width="840" height="40" as="geometry" />
        </mxCell>
        <mxCell id="Dn_3NnZCM7g7BvhpWIRL-88" value="TreatmentStartDate" style="shape=partialRectangle;html=1;whiteSpace=wrap;connectable=0;strokeColor=inherit;overflow=hidden;fillColor=none;top=0;left=0;bottom=0;right=0;pointerEvents=1;fontSize=15;fontStyle=5" parent="Dn_3NnZCM7g7BvhpWIRL-87" vertex="1">
          <mxGeometry width="140" height="40" as="geometry">
            <mxRectangle width="140" height="40" as="alternateBounds" />
          </mxGeometry>
        </mxCell>
        <mxCell id="Dn_3NnZCM7g7BvhpWIRL-89" value="PCode" style="shape=partialRectangle;html=1;whiteSpace=wrap;connectable=0;strokeColor=inherit;overflow=hidden;fillColor=none;top=0;left=0;bottom=0;right=0;pointerEvents=1;fontSize=15;flipV=0;fontStyle=5" parent="Dn_3NnZCM7g7BvhpWIRL-87" vertex="1">
          <mxGeometry x="140" width="140" height="40" as="geometry">
            <mxRectangle width="140" height="40" as="alternateBounds" />
          </mxGeometry>
        </mxCell>
        <mxCell id="Dn_3NnZCM7g7BvhpWIRL-90" value="&lt;u style=&quot;border-color: var(--border-color); font-weight: 400;&quot;&gt;&lt;b style=&quot;border-color: var(--border-color);&quot;&gt;INPCode&lt;/b&gt;&lt;/u&gt;" style="shape=partialRectangle;html=1;whiteSpace=wrap;connectable=0;strokeColor=inherit;overflow=hidden;fillColor=none;top=0;left=0;bottom=0;right=0;pointerEvents=1;fontSize=15;flipV=0;fontStyle=5" parent="Dn_3NnZCM7g7BvhpWIRL-87" vertex="1">
          <mxGeometry x="280" width="140" height="40" as="geometry">
            <mxRectangle width="140" height="40" as="alternateBounds" />
          </mxGeometry>
        </mxCell>
        <mxCell id="Dn_3NnZCM7g7BvhpWIRL-91" value="&lt;u style=&quot;border-color: var(--border-color); font-weight: 400;&quot;&gt;&lt;b style=&quot;border-color: var(--border-color);&quot;&gt;AdmissionDate&lt;/b&gt;&lt;/u&gt;" style="shape=partialRectangle;html=1;whiteSpace=wrap;connectable=0;strokeColor=inherit;overflow=hidden;fillColor=none;top=0;left=0;bottom=0;right=0;pointerEvents=1;fontSize=15;flipV=0;fontStyle=5" parent="Dn_3NnZCM7g7BvhpWIRL-87" vertex="1">
          <mxGeometry x="420" width="140" height="40" as="geometry">
            <mxRectangle width="140" height="40" as="alternateBounds" />
          </mxGeometry>
        </mxCell>
        <mxCell id="Dn_3NnZCM7g7BvhpWIRL-92" value="DrCode" style="shape=partialRectangle;html=1;whiteSpace=wrap;connectable=0;strokeColor=inherit;overflow=hidden;fillColor=none;top=0;left=0;bottom=0;right=0;pointerEvents=1;fontSize=15;flipV=0;fontStyle=5" parent="Dn_3NnZCM7g7BvhpWIRL-87" vertex="1">
          <mxGeometry x="560" width="140" height="40" as="geometry">
            <mxRectangle width="140" height="40" as="alternateBounds" />
          </mxGeometry>
        </mxCell>
        <mxCell id="Dn_3NnZCM7g7BvhpWIRL-93" value="MCode" style="shape=partialRectangle;html=1;whiteSpace=wrap;connectable=0;strokeColor=inherit;overflow=hidden;fillColor=none;top=0;left=0;bottom=0;right=0;pointerEvents=1;fontSize=15;flipV=0;fontStyle=5" parent="Dn_3NnZCM7g7BvhpWIRL-87" vertex="1">
          <mxGeometry x="700" width="140" height="40" as="geometry">
            <mxRectangle width="140" height="40" as="alternateBounds" />
          </mxGeometry>
        </mxCell>
        <mxCell id="Dn_3NnZCM7g7BvhpWIRL-94" value="" style="group" parent="1" connectable="0" vertex="1">
          <mxGeometry x="-360" y="312" width="360" height="1604.9990199637023" as="geometry" />
        </mxCell>
        <mxCell id="Dn_3NnZCM7g7BvhpWIRL-95" value="&lt;font size=&quot;1&quot; style=&quot;&quot;&gt;&lt;b style=&quot;font-size: 24px;&quot;&gt;Patient&lt;/b&gt;&lt;/font&gt;" style="text;html=1;align=left;verticalAlign=middle;resizable=0;points=[];autosize=1;strokeColor=none;fillColor=none;" parent="Dn_3NnZCM7g7BvhpWIRL-94" vertex="1">
          <mxGeometry y="1433.0012159709622" width="105" height="45" as="geometry" />
        </mxCell>
        <mxCell id="Dn_3NnZCM7g7BvhpWIRL-96" value="&lt;span style=&quot;font-size: 24px;&quot;&gt;&lt;b&gt;Department&lt;/b&gt;&lt;/span&gt;" style="text;html=1;align=left;verticalAlign=middle;resizable=0;points=[];autosize=1;strokeColor=none;fillColor=none;" parent="Dn_3NnZCM7g7BvhpWIRL-94" vertex="1">
          <mxGeometry y="359.99998185118034" width="165" height="45" as="geometry" />
        </mxCell>
        <mxCell id="Dn_3NnZCM7g7BvhpWIRL-97" value="&lt;font size=&quot;1&quot; style=&quot;&quot;&gt;&lt;b style=&quot;font-size: 24px;&quot;&gt;Treatment report&lt;/b&gt;&lt;/font&gt;" style="text;html=1;align=left;verticalAlign=middle;resizable=0;points=[];autosize=1;strokeColor=none;fillColor=none;" parent="Dn_3NnZCM7g7BvhpWIRL-94" vertex="1">
          <mxGeometry y="718.8310707803998" width="225" height="45" as="geometry" />
        </mxCell>
        <mxCell id="Dn_3NnZCM7g7BvhpWIRL-98" value="&lt;span style=&quot;font-size: 24px;&quot;&gt;&lt;b&gt;Inpatient&lt;/b&gt;&lt;/span&gt;" style="text;html=1;align=left;verticalAlign=middle;resizable=0;points=[];autosize=1;strokeColor=none;fillColor=none;" parent="Dn_3NnZCM7g7BvhpWIRL-94" vertex="1">
          <mxGeometry y="480.0044827586212" width="135" height="45" as="geometry" />
        </mxCell>
        <mxCell id="Dn_3NnZCM7g7BvhpWIRL-99" value="&lt;font size=&quot;1&quot; style=&quot;&quot;&gt;&lt;b style=&quot;font-size: 24px;&quot;&gt;Package of medication&lt;/b&gt;&lt;/font&gt;" style="text;html=1;align=left;verticalAlign=middle;resizable=0;points=[];autosize=1;strokeColor=none;fillColor=none;" parent="Dn_3NnZCM7g7BvhpWIRL-94" vertex="1">
          <mxGeometry y="1323.0043375680584" width="280" height="40" as="geometry" />
        </mxCell>
        <mxCell id="Dn_3NnZCM7g7BvhpWIRL-100" value="&lt;span style=&quot;font-size: 24px;&quot;&gt;&lt;b&gt;Outpatient&lt;/b&gt;&lt;/span&gt;" style="text;html=1;align=left;verticalAlign=middle;resizable=0;points=[];autosize=1;strokeColor=none;fillColor=none;" parent="Dn_3NnZCM7g7BvhpWIRL-94" vertex="1">
          <mxGeometry y="600.002341197822" width="150" height="45" as="geometry" />
        </mxCell>
        <mxCell id="Dn_3NnZCM7g7BvhpWIRL-101" value="&lt;div&gt;&lt;font size=&quot;1&quot; style=&quot;&quot;&gt;&lt;b style=&quot;font-size: 24px;&quot;&gt;Be Prescribed&amp;nbsp;&lt;/b&gt;&lt;/font&gt;&lt;/div&gt;&lt;div&gt;&lt;font size=&quot;1&quot; style=&quot;&quot;&gt;&lt;b style=&quot;font-size: 24px;&quot;&gt;for Outpatient&lt;/b&gt;&lt;/font&gt;&lt;/div&gt;" style="text;html=1;align=left;verticalAlign=middle;resizable=0;points=[];autosize=1;strokeColor=none;fillColor=none;" parent="Dn_3NnZCM7g7BvhpWIRL-94" vertex="1">
          <mxGeometry y="942.9093647912891" width="195" height="75" as="geometry" />
        </mxCell>
        <mxCell id="Dn_3NnZCM7g7BvhpWIRL-102" value="&lt;font size=&quot;1&quot; style=&quot;&quot;&gt;&lt;b style=&quot;font-size: 24px;&quot;&gt;Provider-Medication&lt;/b&gt;&lt;/font&gt;" style="text;html=1;align=left;verticalAlign=middle;resizable=0;points=[];autosize=1;strokeColor=none;fillColor=none;" parent="Dn_3NnZCM7g7BvhpWIRL-94" vertex="1">
          <mxGeometry y="1083.0041923774957" width="250" height="40" as="geometry" />
        </mxCell>
        <mxCell id="Dn_3NnZCM7g7BvhpWIRL-103" value="&lt;b style=&quot;border-color: var(--border-color); font-size: 24px;&quot;&gt;Provider&lt;/b&gt;" style="text;html=1;align=left;verticalAlign=middle;resizable=0;points=[];autosize=1;strokeColor=none;fillColor=none;" parent="Dn_3NnZCM7g7BvhpWIRL-94" vertex="1">
          <mxGeometry y="1567.9990199637023" width="120" height="40" as="geometry" />
        </mxCell>
        <mxCell id="Dn_3NnZCM7g7BvhpWIRL-104" value="" style="group" parent="Dn_3NnZCM7g7BvhpWIRL-94" connectable="0" vertex="1">
          <mxGeometry width="150" height="299.72" as="geometry" />
        </mxCell>
        <mxCell id="Dn_3NnZCM7g7BvhpWIRL-105" value="&lt;font style=&quot;font-size: 24px;&quot;&gt;&lt;b&gt;Doctor&lt;/b&gt;&lt;/font&gt;" style="text;html=1;align=left;verticalAlign=middle;resizable=0;points=[];autosize=1;strokeColor=none;fillColor=none;flipV=1;container=0;" parent="Dn_3NnZCM7g7BvhpWIRL-104" vertex="1">
          <mxGeometry y="120.0009263762049" width="105" height="45" as="geometry" />
        </mxCell>
        <mxCell id="Dn_3NnZCM7g7BvhpWIRL-106" value="&lt;span style=&quot;font-size: 24px;&quot;&gt;&lt;b&gt;Nurse&lt;/b&gt;&lt;/span&gt;" style="text;whiteSpace=wrap;html=1;" parent="Dn_3NnZCM7g7BvhpWIRL-104" vertex="1">
          <mxGeometry y="240.00270575290492" width="120" height="59.71729424709513" as="geometry" />
        </mxCell>
        <mxCell id="Dn_3NnZCM7g7BvhpWIRL-107" value="&lt;font size=&quot;1&quot; style=&quot;&quot;&gt;&lt;b style=&quot;font-size: 24px;&quot;&gt;Examination Report&lt;/b&gt;&lt;/font&gt;" style="text;html=1;align=left;verticalAlign=middle;resizable=0;points=[];autosize=1;strokeColor=none;fillColor=none;" parent="Dn_3NnZCM7g7BvhpWIRL-94" vertex="1">
          <mxGeometry y="838.4773139745921" width="255" height="45" as="geometry" />
        </mxCell>
        <mxCell id="Dn_3NnZCM7g7BvhpWIRL-108" value="&lt;div&gt;&lt;font size=&quot;1&quot; style=&quot;&quot;&gt;&lt;b style=&quot;font-size: 24px;&quot;&gt;Be Prescribed&amp;nbsp;&lt;/b&gt;&lt;/font&gt;&lt;/div&gt;&lt;div&gt;&lt;font size=&quot;1&quot; style=&quot;&quot;&gt;&lt;b style=&quot;font-size: 24px;&quot;&gt;for Inpatient&lt;/b&gt;&lt;/font&gt;&lt;/div&gt;" style="text;html=1;align=left;verticalAlign=middle;resizable=0;points=[];autosize=1;strokeColor=none;fillColor=none;" parent="Dn_3NnZCM7g7BvhpWIRL-94" vertex="1">
          <mxGeometry y="1184.999364791289" width="195" height="75" as="geometry" />
        </mxCell>
        <mxCell id="Dn_3NnZCM7g7BvhpWIRL-109" value="" style="endArrow=classic;html=1;rounded=0;exitX=0;exitY=0.5;exitDx=0;exitDy=0;" parent="Dn_3NnZCM7g7BvhpWIRL-94" source="Dn_3NnZCM7g7BvhpWIRL-87" edge="1">
          <mxGeometry width="50" height="50" relative="1" as="geometry">
            <mxPoint x="170" y="1298" as="sourcePoint" />
            <mxPoint x="400" y="748" as="targetPoint" />
            <Array as="points">
              <mxPoint x="250" y="1223" />
              <mxPoint x="250" y="748" />
            </Array>
          </mxGeometry>
        </mxCell>
        <mxCell id="Dn_3NnZCM7g7BvhpWIRL-110" value="" style="shape=table;startSize=0;container=1;collapsible=0;childLayout=tableLayout;fontSize=15;" parent="1" vertex="1">
          <mxGeometry x="330" y="1395" width="420" height="40" as="geometry" />
        </mxCell>
        <mxCell id="Dn_3NnZCM7g7BvhpWIRL-111" value="" style="shape=tableRow;horizontal=0;startSize=0;swimlaneHead=0;swimlaneBody=0;strokeColor=inherit;top=0;left=0;bottom=0;right=0;collapsible=0;dropTarget=0;fillColor=none;points=[[0,0.5],[1,0.5]];portConstraint=eastwest;fontSize=15;" parent="Dn_3NnZCM7g7BvhpWIRL-110" vertex="1">
          <mxGeometry width="420" height="40" as="geometry" />
        </mxCell>
        <mxCell id="Dn_3NnZCM7g7BvhpWIRL-112" value="&lt;b&gt;&lt;u&gt;&lt;font style=&quot;font-size: 16px;&quot;&gt;Mcode&lt;/font&gt;&lt;/u&gt;&lt;/b&gt;" style="shape=partialRectangle;html=1;whiteSpace=wrap;connectable=0;strokeColor=inherit;overflow=hidden;fillColor=none;top=0;left=0;bottom=0;right=0;pointerEvents=1;fontSize=15;" parent="Dn_3NnZCM7g7BvhpWIRL-111" vertex="1">
          <mxGeometry width="140" height="40" as="geometry">
            <mxRectangle width="140" height="40" as="alternateBounds" />
          </mxGeometry>
        </mxCell>
        <mxCell id="Dn_3NnZCM7g7BvhpWIRL-113" value="&lt;font style=&quot;font-size: 15px;&quot;&gt;ImportedPrice&lt;/font&gt;" style="shape=partialRectangle;html=1;whiteSpace=wrap;connectable=0;strokeColor=inherit;overflow=hidden;fillColor=none;top=0;left=0;bottom=0;right=0;pointerEvents=1;fontSize=15;" parent="Dn_3NnZCM7g7BvhpWIRL-111" vertex="1">
          <mxGeometry x="140" width="140" height="40" as="geometry">
            <mxRectangle width="140" height="40" as="alternateBounds" />
          </mxGeometry>
        </mxCell>
        <mxCell id="Dn_3NnZCM7g7BvhpWIRL-114" value="&lt;font style=&quot;font-size: 15px;&quot;&gt;ImportedQuantity&lt;/font&gt;" style="shape=partialRectangle;html=1;whiteSpace=wrap;connectable=0;strokeColor=inherit;overflow=hidden;fillColor=none;top=0;left=0;bottom=0;right=0;pointerEvents=1;fontSize=15;" parent="Dn_3NnZCM7g7BvhpWIRL-111" vertex="1">
          <mxGeometry x="280" width="140" height="40" as="geometry">
            <mxRectangle width="140" height="40" as="alternateBounds" />
          </mxGeometry>
        </mxCell>
        <mxCell id="Dn_3NnZCM7g7BvhpWIRL-115" value="" style="shape=table;startSize=0;container=1;collapsible=0;childLayout=tableLayout;fontSize=15;" parent="1" vertex="1">
          <mxGeometry x="750" y="1635" width="280" height="40" as="geometry" />
        </mxCell>
        <mxCell id="Dn_3NnZCM7g7BvhpWIRL-116" value="" style="shape=tableRow;horizontal=0;startSize=0;swimlaneHead=0;swimlaneBody=0;strokeColor=inherit;top=0;left=0;bottom=0;right=0;collapsible=0;dropTarget=0;fillColor=none;points=[[0,0.5],[1,0.5]];portConstraint=eastwest;fontSize=15;" parent="Dn_3NnZCM7g7BvhpWIRL-115" vertex="1">
          <mxGeometry width="280" height="40" as="geometry" />
        </mxCell>
        <mxCell id="Dn_3NnZCM7g7BvhpWIRL-117" value="&lt;font style=&quot;font-size: 15px;&quot;&gt;MStatus&lt;/font&gt;" style="shape=partialRectangle;html=1;whiteSpace=wrap;connectable=0;strokeColor=inherit;overflow=hidden;fillColor=none;top=0;left=0;bottom=0;right=0;pointerEvents=1;fontSize=15;" parent="Dn_3NnZCM7g7BvhpWIRL-116" vertex="1">
          <mxGeometry width="140" height="40" as="geometry">
            <mxRectangle width="140" height="40" as="alternateBounds" />
          </mxGeometry>
        </mxCell>
        <mxCell id="Dn_3NnZCM7g7BvhpWIRL-118" value="MCurrentQuantity" style="shape=partialRectangle;html=1;whiteSpace=wrap;connectable=0;strokeColor=inherit;overflow=hidden;fillColor=none;top=0;left=0;bottom=0;right=0;pointerEvents=1;fontSize=15;" parent="Dn_3NnZCM7g7BvhpWIRL-116" vertex="1">
          <mxGeometry x="140" width="140" height="40" as="geometry">
            <mxRectangle width="140" height="40" as="alternateBounds" />
          </mxGeometry>
        </mxCell>
        <mxCell id="Dn_3NnZCM7g7BvhpWIRL-119" value="" style="shape=table;startSize=0;container=1;collapsible=0;childLayout=tableLayout;direction=south;flipH=1;fontSize=15;" parent="1" vertex="1">
          <mxGeometry x="50" y="434.5" width="1540" height="40" as="geometry" />
        </mxCell>
        <mxCell id="Dn_3NnZCM7g7BvhpWIRL-120" value="" style="shape=tableRow;horizontal=0;startSize=0;swimlaneHead=0;swimlaneBody=0;strokeColor=inherit;top=0;left=0;bottom=0;right=0;collapsible=0;dropTarget=0;fillColor=none;points=[[0,0.5],[1,0.5]];portConstraint=eastwest;fontSize=15;" parent="Dn_3NnZCM7g7BvhpWIRL-119" vertex="1">
          <mxGeometry width="1540" height="40" as="geometry" />
        </mxCell>
        <mxCell id="Dn_3NnZCM7g7BvhpWIRL-121" value="&lt;span style=&quot;font-size: 15px;&quot;&gt;&lt;u style=&quot;font-size: 15px;&quot;&gt;&lt;b style=&quot;font-size: 15px;&quot;&gt;ECode&lt;/b&gt;&lt;/u&gt;&lt;/span&gt;" style="shape=partialRectangle;html=1;whiteSpace=wrap;connectable=0;strokeColor=inherit;overflow=hidden;fillColor=none;top=0;left=0;bottom=0;right=0;pointerEvents=1;fontSize=15;" parent="Dn_3NnZCM7g7BvhpWIRL-120" vertex="1">
          <mxGeometry width="140" height="40" as="geometry">
            <mxRectangle width="140" height="40" as="alternateBounds" />
          </mxGeometry>
        </mxCell>
        <mxCell id="Dn_3NnZCM7g7BvhpWIRL-122" value="&lt;font style=&quot;font-size: 15px;&quot;&gt;EFName&lt;/font&gt;" style="shape=partialRectangle;html=1;whiteSpace=wrap;connectable=0;strokeColor=inherit;overflow=hidden;fillColor=none;top=0;left=0;bottom=0;right=0;pointerEvents=1;fontSize=15;" parent="Dn_3NnZCM7g7BvhpWIRL-120" vertex="1">
          <mxGeometry x="140" width="140" height="40" as="geometry">
            <mxRectangle width="140" height="40" as="alternateBounds" />
          </mxGeometry>
        </mxCell>
        <mxCell id="Dn_3NnZCM7g7BvhpWIRL-123" value="&lt;font style=&quot;font-size: 15px;&quot;&gt;ELName&lt;/font&gt;" style="shape=partialRectangle;html=1;whiteSpace=wrap;connectable=0;strokeColor=inherit;overflow=hidden;fillColor=none;top=0;left=0;bottom=0;right=0;pointerEvents=1;fontSize=15;" parent="Dn_3NnZCM7g7BvhpWIRL-120" vertex="1">
          <mxGeometry x="280" width="140" height="40" as="geometry">
            <mxRectangle width="140" height="40" as="alternateBounds" />
          </mxGeometry>
        </mxCell>
        <mxCell id="Dn_3NnZCM7g7BvhpWIRL-124" value="&lt;font style=&quot;font-size: 15px;&quot;&gt;EBoDate&lt;/font&gt;" style="shape=partialRectangle;html=1;whiteSpace=wrap;connectable=0;strokeColor=inherit;overflow=hidden;fillColor=none;top=0;left=0;bottom=0;right=0;pointerEvents=1;fontSize=15;" parent="Dn_3NnZCM7g7BvhpWIRL-120" vertex="1">
          <mxGeometry x="420" width="140" height="40" as="geometry">
            <mxRectangle width="140" height="40" as="alternateBounds" />
          </mxGeometry>
        </mxCell>
        <mxCell id="Dn_3NnZCM7g7BvhpWIRL-125" value="&lt;font style=&quot;font-size: 15px;&quot;&gt;EGender&lt;/font&gt;" style="shape=partialRectangle;html=1;whiteSpace=wrap;connectable=0;strokeColor=inherit;overflow=hidden;fillColor=none;top=0;left=0;bottom=0;right=0;pointerEvents=1;fontSize=15;" parent="Dn_3NnZCM7g7BvhpWIRL-120" vertex="1">
          <mxGeometry x="560" width="140" height="40" as="geometry">
            <mxRectangle width="140" height="40" as="alternateBounds" />
          </mxGeometry>
        </mxCell>
        <mxCell id="Dn_3NnZCM7g7BvhpWIRL-126" value="&lt;font style=&quot;font-size: 15px;&quot;&gt;EAddress&lt;/font&gt;" style="shape=partialRectangle;html=1;whiteSpace=wrap;connectable=0;strokeColor=inherit;overflow=hidden;fillColor=none;top=0;left=0;bottom=0;right=0;pointerEvents=1;fontSize=15;" parent="Dn_3NnZCM7g7BvhpWIRL-120" vertex="1">
          <mxGeometry x="700" width="140" height="40" as="geometry">
            <mxRectangle width="140" height="40" as="alternateBounds" />
          </mxGeometry>
        </mxCell>
        <mxCell id="Dn_3NnZCM7g7BvhpWIRL-127" value="&lt;font style=&quot;font-size: 15px;&quot;&gt;EStartDate&lt;/font&gt;" style="shape=partialRectangle;html=1;whiteSpace=wrap;connectable=0;strokeColor=inherit;overflow=hidden;fillColor=none;top=0;left=0;bottom=0;right=0;pointerEvents=1;fontSize=15;" parent="Dn_3NnZCM7g7BvhpWIRL-120" vertex="1">
          <mxGeometry x="840" width="140" height="40" as="geometry">
            <mxRectangle width="140" height="40" as="alternateBounds" />
          </mxGeometry>
        </mxCell>
        <mxCell id="Dn_3NnZCM7g7BvhpWIRL-128" value="" style="shape=partialRectangle;html=1;whiteSpace=wrap;connectable=0;strokeColor=inherit;overflow=hidden;fillColor=none;top=0;left=0;bottom=0;right=0;pointerEvents=1;fontSize=15;" parent="Dn_3NnZCM7g7BvhpWIRL-120" vertex="1">
          <mxGeometry x="980" height="40" as="geometry">
            <mxRectangle height="40" as="alternateBounds" />
          </mxGeometry>
        </mxCell>
        <mxCell id="Dn_3NnZCM7g7BvhpWIRL-129" value="&lt;font style=&quot;font-size: 15px;&quot;&gt;EDegreeDate&lt;/font&gt;" style="shape=partialRectangle;html=1;whiteSpace=wrap;connectable=0;strokeColor=inherit;overflow=hidden;fillColor=none;top=0;left=0;bottom=0;right=0;pointerEvents=1;fontSize=15;" parent="Dn_3NnZCM7g7BvhpWIRL-120" vertex="1">
          <mxGeometry x="980" width="140" height="40" as="geometry">
            <mxRectangle width="140" height="40" as="alternateBounds" />
          </mxGeometry>
        </mxCell>
        <mxCell id="Dn_3NnZCM7g7BvhpWIRL-130" value="&lt;font style=&quot;font-size: 15px;&quot;&gt;Speciality&lt;/font&gt;" style="shape=partialRectangle;html=1;whiteSpace=wrap;connectable=0;strokeColor=inherit;overflow=hidden;fillColor=none;top=0;left=0;bottom=0;right=0;pointerEvents=1;fontSize=15;" parent="Dn_3NnZCM7g7BvhpWIRL-120" vertex="1">
          <mxGeometry x="1120" width="140" height="40" as="geometry">
            <mxRectangle width="140" height="40" as="alternateBounds" />
          </mxGeometry>
        </mxCell>
        <mxCell id="Dn_3NnZCM7g7BvhpWIRL-131" value="&lt;font style=&quot;font-size: 15px;&quot;&gt;JobType&lt;/font&gt;" style="shape=partialRectangle;html=1;whiteSpace=wrap;connectable=0;strokeColor=inherit;overflow=hidden;fillColor=none;top=0;left=0;bottom=0;right=0;pointerEvents=1;fontSize=15;" parent="Dn_3NnZCM7g7BvhpWIRL-120" vertex="1">
          <mxGeometry x="1260" width="140" height="40" as="geometry">
            <mxRectangle width="140" height="40" as="alternateBounds" />
          </mxGeometry>
        </mxCell>
        <mxCell id="Dn_3NnZCM7g7BvhpWIRL-132" value="DCode" style="shape=partialRectangle;html=1;whiteSpace=wrap;connectable=0;strokeColor=inherit;overflow=hidden;fillColor=none;top=0;left=0;bottom=0;right=0;pointerEvents=1;fontSize=15;" parent="Dn_3NnZCM7g7BvhpWIRL-120" vertex="1">
          <mxGeometry x="1400" width="140" height="40" as="geometry">
            <mxRectangle width="140" height="40" as="alternateBounds" />
          </mxGeometry>
        </mxCell>
        <mxCell id="Dn_3NnZCM7g7BvhpWIRL-133" value="" style="endArrow=classic;html=1;rounded=0;exitX=0.167;exitY=-0.125;exitDx=0;exitDy=0;exitPerimeter=0;" parent="1" source="Dn_3NnZCM7g7BvhpWIRL-110" edge="1">
          <mxGeometry width="50" height="50" relative="1" as="geometry">
            <mxPoint x="400" y="1370" as="sourcePoint" />
            <mxPoint x="50" y="1660" as="targetPoint" />
            <Array as="points">
              <mxPoint x="400" y="1370" />
              <mxPoint y="1370" />
              <mxPoint y="1510" />
              <mxPoint y="1660" />
            </Array>
          </mxGeometry>
        </mxCell>
        <mxCell id="Dn_3NnZCM7g7BvhpWIRL-134" value="" style="endArrow=classic;html=1;rounded=0;exitX=0.746;exitY=1.068;exitDx=0;exitDy=0;exitPerimeter=0;" parent="1" source="Dn_3NnZCM7g7BvhpWIRL-83" edge="1">
          <mxGeometry width="50" height="50" relative="1" as="geometry">
            <mxPoint x="350" y="1610" as="sourcePoint" />
            <mxPoint x="50" y="1900" as="targetPoint" />
            <Array as="points">
              <mxPoint x="260" y="1470" />
              <mxPoint x="20" y="1470" />
              <mxPoint x="20" y="1900" />
            </Array>
          </mxGeometry>
        </mxCell>
        <mxCell id="Dn_3NnZCM7g7BvhpWIRL-135" value="" style="endArrow=classic;html=1;rounded=0;exitX=0.001;exitY=0.638;exitDx=0;exitDy=0;exitPerimeter=0;" parent="1" source="Dn_3NnZCM7g7BvhpWIRL-40" edge="1">
          <mxGeometry width="50" height="50" relative="1" as="geometry">
            <mxPoint x="30" y="940" as="sourcePoint" />
            <mxPoint x="40" y="1780" as="targetPoint" />
            <Array as="points">
              <mxPoint x="-50" y="940" />
              <mxPoint x="-50" y="1780" />
            </Array>
          </mxGeometry>
        </mxCell>
        <mxCell id="Dn_3NnZCM7g7BvhpWIRL-136" value="" style="endArrow=none;html=1;rounded=0;entryX=0;entryY=0.5;entryDx=0;entryDy=0;" parent="1" target="Dn_3NnZCM7g7BvhpWIRL-74" edge="1">
          <mxGeometry width="50" height="50" relative="1" as="geometry">
            <mxPoint x="-50" y="960" as="sourcePoint" />
            <mxPoint x="-60" y="810" as="targetPoint" />
            <Array as="points">
              <mxPoint x="-50" y="815" />
            </Array>
          </mxGeometry>
        </mxCell>
        <mxCell id="Dn_3NnZCM7g7BvhpWIRL-137" value="" style="endArrow=classic;html=1;rounded=0;entryX=0.04;entryY=-0.026;entryDx=0;entryDy=0;entryPerimeter=0;" parent="1" target="Dn_3NnZCM7g7BvhpWIRL-120" edge="1">
          <mxGeometry width="50" height="50" relative="1" as="geometry">
            <mxPoint x="670" y="1030" as="sourcePoint" />
            <mxPoint x="120" y="420" as="targetPoint" />
            <Array as="points">
              <mxPoint x="670" y="1000" />
              <mxPoint x="1700" y="1000" />
              <mxPoint x="1700" y="370" />
              <mxPoint x="112" y="370" />
            </Array>
          </mxGeometry>
        </mxCell>
        <mxCell id="Dn_3NnZCM7g7BvhpWIRL-138" value="" style="endArrow=classic;html=1;rounded=0;entryX=0.364;entryY=1.205;entryDx=0;entryDy=0;entryPerimeter=0;exitX=0.437;exitY=-0.013;exitDx=0;exitDy=0;exitPerimeter=0;" parent="1" source="Dn_3NnZCM7g7BvhpWIRL-51" target="Dn_3NnZCM7g7BvhpWIRL-74" edge="1">
          <mxGeometry width="50" height="50" relative="1" as="geometry">
            <mxPoint x="720" y="1080" as="sourcePoint" />
            <mxPoint x="770" y="1030" as="targetPoint" />
            <Array as="points">
              <mxPoint x="540" y="880" />
              <mxPoint x="407" y="880" />
            </Array>
          </mxGeometry>
        </mxCell>
        <mxCell id="Dn_3NnZCM7g7BvhpWIRL-139" value="" style="endArrow=classic;html=1;rounded=0;entryX=0.241;entryY=1.241;entryDx=0;entryDy=0;entryPerimeter=0;exitX=0.295;exitY=-0.083;exitDx=0;exitDy=0;exitPerimeter=0;" parent="1" source="Dn_3NnZCM7g7BvhpWIRL-51" target="Dn_3NnZCM7g7BvhpWIRL-74" edge="1">
          <mxGeometry width="50" height="50" relative="1" as="geometry">
            <mxPoint x="720" y="1080" as="sourcePoint" />
            <mxPoint x="770" y="1030" as="targetPoint" />
            <Array as="points">
              <mxPoint x="380" y="880" />
              <mxPoint x="286" y="880" />
            </Array>
          </mxGeometry>
        </mxCell>
        <mxCell id="Dn_3NnZCM7g7BvhpWIRL-140" value="" style="endArrow=classic;html=1;rounded=0;exitX=0.185;exitY=0.03;exitDx=0;exitDy=0;exitPerimeter=0;" parent="1" source="Dn_3NnZCM7g7BvhpWIRL-51" edge="1">
          <mxGeometry width="50" height="50" relative="1" as="geometry">
            <mxPoint x="720" y="1080" as="sourcePoint" />
            <mxPoint x="40" y="810" as="targetPoint" />
            <Array as="points">
              <mxPoint x="258" y="1000" />
              <mxPoint x="-120" y="1000" />
              <mxPoint x="-120" y="810" />
            </Array>
          </mxGeometry>
        </mxCell>
        <mxCell id="Dn_3NnZCM7g7BvhpWIRL-141" value="" style="endArrow=classic;html=1;rounded=0;exitX=0.21;exitY=-0.041;exitDx=0;exitDy=0;exitPerimeter=0;entryX=-0.007;entryY=0.377;entryDx=0;entryDy=0;entryPerimeter=0;" parent="1" source="Dn_3NnZCM7g7BvhpWIRL-31" target="Dn_3NnZCM7g7BvhpWIRL-40" edge="1">
          <mxGeometry width="50" height="50" relative="1" as="geometry">
            <mxPoint x="230" y="1110" as="sourcePoint" />
            <mxPoint x="10" y="920" as="targetPoint" />
            <Array as="points">
              <mxPoint x="256" y="1120" />
              <mxPoint x="-90" y="1120" />
              <mxPoint x="-90" y="930" />
            </Array>
          </mxGeometry>
        </mxCell>
        <mxCell id="Dn_3NnZCM7g7BvhpWIRL-142" value="" style="endArrow=classic;html=1;rounded=0;exitX=0.347;exitY=-0.088;exitDx=0;exitDy=0;exitPerimeter=0;" parent="1" source="Dn_3NnZCM7g7BvhpWIRL-31" edge="1">
          <mxGeometry width="50" height="50" relative="1" as="geometry">
            <mxPoint x="390" y="1130" as="sourcePoint" />
            <mxPoint x="260" y="960" as="targetPoint" />
            <Array as="points">
              <mxPoint x="390" y="1100" />
              <mxPoint y="1100" />
              <mxPoint y="980" />
              <mxPoint x="260" y="980" />
            </Array>
          </mxGeometry>
        </mxCell>
        <mxCell id="Dn_3NnZCM7g7BvhpWIRL-143" value="" style="endArrow=classic;html=1;rounded=0;entryX=0;entryY=0.387;entryDx=0;entryDy=0;entryPerimeter=0;" parent="1" target="Dn_3NnZCM7g7BvhpWIRL-120" edge="1">
          <mxGeometry width="50" height="50" relative="1" as="geometry">
            <mxPoint x="400" y="670" as="sourcePoint" />
            <mxPoint x="40" y="450" as="targetPoint" />
            <Array as="points">
              <mxPoint x="400" y="640" />
              <mxPoint x="-80" y="640" />
              <mxPoint x="-80" y="450" />
            </Array>
          </mxGeometry>
        </mxCell>
        <mxCell id="Dn_3NnZCM7g7BvhpWIRL-144" value="" style="endArrow=classic;html=1;rounded=0;entryX=0.144;entryY=-0.096;entryDx=0;entryDy=0;entryPerimeter=0;exitX=1.001;exitY=0.375;exitDx=0;exitDy=0;exitPerimeter=0;" parent="1" source="Dn_3NnZCM7g7BvhpWIRL-2" target="Dn_3NnZCM7g7BvhpWIRL-16" edge="1">
          <mxGeometry width="50" height="50" relative="1" as="geometry">
            <mxPoint x="1610" y="570" as="sourcePoint" />
            <mxPoint x="490" y="650" as="targetPoint" />
            <Array as="points">
              <mxPoint x="1640" y="570" />
              <mxPoint x="1640" y="630" />
              <mxPoint x="110" y="630" />
            </Array>
          </mxGeometry>
        </mxCell>
        <mxCell id="Dn_3NnZCM7g7BvhpWIRL-145" value="" style="endArrow=none;html=1;rounded=0;exitX=1.001;exitY=0.633;exitDx=0;exitDy=0;exitPerimeter=0;" parent="1" source="Dn_3NnZCM7g7BvhpWIRL-120" edge="1">
          <mxGeometry width="50" height="50" relative="1" as="geometry">
            <mxPoint x="1640" y="450" as="sourcePoint" />
            <mxPoint x="1640" y="570" as="targetPoint" />
            <Array as="points">
              <mxPoint x="1640" y="460" />
            </Array>
          </mxGeometry>
        </mxCell>
        <mxCell id="Dn_3NnZCM7g7BvhpWIRL-146" value="" style="endArrow=classic;html=1;rounded=0;entryX=0;entryY=0.5;entryDx=0;entryDy=0;" parent="1" target="Dn_3NnZCM7g7BvhpWIRL-2" edge="1">
          <mxGeometry width="50" height="50" relative="1" as="geometry">
            <mxPoint x="960" y="790" as="sourcePoint" />
            <mxPoint x="-140" y="620" as="targetPoint" />
            <Array as="points">
              <mxPoint x="960" y="760" />
              <mxPoint x="-160" y="760" />
              <mxPoint x="-160" y="575" />
            </Array>
          </mxGeometry>
        </mxCell>
        <mxCell id="Dn_3NnZCM7g7BvhpWIRL-147" value="" style="endArrow=classic;html=1;rounded=0;exitX=0.928;exitY=1.074;exitDx=0;exitDy=0;exitPerimeter=0;" parent="1" source="Dn_3NnZCM7g7BvhpWIRL-86" edge="1">
          <mxGeometry width="50" height="50" relative="1" as="geometry">
            <mxPoint x="1040" y="1550" as="sourcePoint" />
            <mxPoint x="110" y="1630" as="targetPoint" />
            <Array as="points">
              <mxPoint x="830" y="1600" />
              <mxPoint x="650" y="1600" />
              <mxPoint x="110" y="1600" />
            </Array>
          </mxGeometry>
        </mxCell>
        <mxCell id="Dn_3NnZCM7g7BvhpWIRL-148" value="" style="endArrow=classic;html=1;rounded=0;exitX=0.262;exitY=-0.005;exitDx=0;exitDy=0;exitPerimeter=0;entryX=0.214;entryY=-0.081;entryDx=0;entryDy=0;entryPerimeter=0;" parent="1" source="Dn_3NnZCM7g7BvhpWIRL-87" target="Dn_3NnZCM7g7BvhpWIRL-51" edge="1">
          <mxGeometry width="50" height="50" relative="1" as="geometry">
            <mxPoint x="270" y="1500" as="sourcePoint" />
            <mxPoint x="210" y="1220" as="targetPoint" />
            <Array as="points">
              <mxPoint x="270" y="1480" />
              <mxPoint x="1450" y="1480" />
              <mxPoint x="1450" y="1010" />
              <mxPoint x="290" y="1010" />
            </Array>
          </mxGeometry>
        </mxCell>
        <mxCell id="Dn_3NnZCM7g7BvhpWIRL-149" value="" style="endArrow=classic;html=1;rounded=0;entryX=0.319;entryY=1.229;entryDx=0;entryDy=0;entryPerimeter=0;" parent="1" target="Dn_3NnZCM7g7BvhpWIRL-51" edge="1">
          <mxGeometry width="50" height="50" relative="1" as="geometry">
            <mxPoint x="400" y="1514" as="sourcePoint" />
            <mxPoint x="1270" y="1250" as="targetPoint" />
            <Array as="points">
              <mxPoint x="400" y="1500" />
              <mxPoint x="1670" y="1500" />
              <mxPoint x="1670" y="1120" />
              <mxPoint x="407" y="1120" />
            </Array>
          </mxGeometry>
        </mxCell>
        <mxCell id="Dn_3NnZCM7g7BvhpWIRL-150" value="" style="endArrow=classic;html=1;rounded=0;exitX=0.571;exitY=-0.004;exitDx=0;exitDy=0;exitPerimeter=0;entryX=0.438;entryY=1.071;entryDx=0;entryDy=0;entryPerimeter=0;" parent="1" source="Dn_3NnZCM7g7BvhpWIRL-87" target="Dn_3NnZCM7g7BvhpWIRL-50" edge="1">
          <mxGeometry width="50" height="50" relative="1" as="geometry">
            <mxPoint x="530" y="1490" as="sourcePoint" />
            <mxPoint x="520" y="1090" as="targetPoint" />
            <Array as="points">
              <mxPoint x="530" y="1460" />
              <mxPoint x="1790" y="1460" />
              <mxPoint x="1790" y="1110" />
              <mxPoint x="540" y="1110" />
            </Array>
          </mxGeometry>
        </mxCell>
        <mxCell id="Dn_3NnZCM7g7BvhpWIRL-151" value="" style="endArrow=classic;html=1;rounded=0;entryX=0;entryY=0.5;entryDx=0;entryDy=0;" parent="1" target="Dn_3NnZCM7g7BvhpWIRL-44" edge="1">
          <mxGeometry width="50" height="50" relative="1" as="geometry">
            <mxPoint x="50" y="1293" as="sourcePoint" />
            <mxPoint x="-90" y="1620" as="targetPoint" />
            <Array as="points">
              <mxPoint x="-90" y="1293" />
              <mxPoint x="-90" y="1655" />
            </Array>
          </mxGeometry>
        </mxCell>
        <mxCell id="Dn_3NnZCM7g7BvhpWIRL-152" value="" style="endArrow=classic;html=1;rounded=0;exitX=0.887;exitY=0.038;exitDx=0;exitDy=0;exitPerimeter=0;entryX=0.501;entryY=1.027;entryDx=0;entryDy=0;entryPerimeter=0;" parent="1" source="Dn_3NnZCM7g7BvhpWIRL-61" target="Dn_3NnZCM7g7BvhpWIRL-31" edge="1">
          <mxGeometry width="50" height="50" relative="1" as="geometry">
            <mxPoint x="880" y="1310" as="sourcePoint" />
            <mxPoint x="540" y="1190" as="targetPoint" />
            <Array as="points">
              <mxPoint x="671" y="1240" />
              <mxPoint x="540" y="1240" />
            </Array>
          </mxGeometry>
        </mxCell>
        <mxCell id="Dn_3NnZCM7g7BvhpWIRL-153" value="" style="endArrow=classic;html=1;rounded=0;entryX=0.356;entryY=1.042;entryDx=0;entryDy=0;entryPerimeter=0;exitX=0.671;exitY=0.02;exitDx=0;exitDy=0;exitPerimeter=0;" parent="1" source="Dn_3NnZCM7g7BvhpWIRL-61" target="Dn_3NnZCM7g7BvhpWIRL-31" edge="1">
          <mxGeometry width="50" height="50" relative="1" as="geometry">
            <mxPoint x="750" y="1360" as="sourcePoint" />
            <mxPoint x="800" y="1310" as="targetPoint" />
            <Array as="points">
              <mxPoint x="520" y="1240" />
              <mxPoint x="399" y="1240" />
            </Array>
          </mxGeometry>
        </mxCell>
        <mxCell id="Dn_3NnZCM7g7BvhpWIRL-154" value="" style="endArrow=classic;html=1;rounded=0;entryX=0.219;entryY=1.087;entryDx=0;entryDy=0;entryPerimeter=0;" parent="1" target="Dn_3NnZCM7g7BvhpWIRL-31" edge="1">
          <mxGeometry width="50" height="50" relative="1" as="geometry">
            <mxPoint x="370" y="1270" as="sourcePoint" />
            <mxPoint x="290" y="1200" as="targetPoint" />
            <Array as="points">
              <mxPoint x="370" y="1240" />
              <mxPoint x="265" y="1240" />
            </Array>
          </mxGeometry>
        </mxCell>
        <mxCell id="Dn_3NnZCM7g7BvhpWIRL-155" value="" style="endArrow=classic;html=1;rounded=0;entryX=0.083;entryY=1.072;entryDx=0;entryDy=0;entryPerimeter=0;" parent="1" target="Dn_3NnZCM7g7BvhpWIRL-31" edge="1">
          <mxGeometry width="50" height="50" relative="1" as="geometry">
            <mxPoint x="250" y="1270" as="sourcePoint" />
            <mxPoint x="140" y="1210" as="targetPoint" />
            <Array as="points">
              <mxPoint x="250" y="1230" />
              <mxPoint x="131" y="1230" />
            </Array>
          </mxGeometry>
        </mxCell>
        <mxCell id="Dn_3NnZCM7g7BvhpWIRL-156" value="" style="shape=table;startSize=0;container=1;collapsible=0;childLayout=tableLayout;" parent="1" vertex="1">
          <mxGeometry x="50" y="300" width="279" height="40" as="geometry" />
        </mxCell>
        <mxCell id="Dn_3NnZCM7g7BvhpWIRL-157" value="" style="shape=tableRow;horizontal=0;startSize=0;swimlaneHead=0;swimlaneBody=0;strokeColor=inherit;top=0;left=0;bottom=0;right=0;collapsible=0;dropTarget=0;fillColor=none;points=[[0,0.5],[1,0.5]];portConstraint=eastwest;" parent="Dn_3NnZCM7g7BvhpWIRL-156" vertex="1">
          <mxGeometry width="279" height="40" as="geometry" />
        </mxCell>
        <mxCell id="Dn_3NnZCM7g7BvhpWIRL-158" value="&lt;b&gt;&lt;u&gt;&lt;font style=&quot;font-size: 15px;&quot;&gt;EPhone&lt;/font&gt;&lt;/u&gt;&lt;/b&gt;" style="shape=partialRectangle;html=1;whiteSpace=wrap;connectable=0;strokeColor=inherit;overflow=hidden;fillColor=none;top=0;left=0;bottom=0;right=0;pointerEvents=1;" parent="Dn_3NnZCM7g7BvhpWIRL-157" vertex="1">
          <mxGeometry width="141" height="40" as="geometry">
            <mxRectangle width="141" height="40" as="alternateBounds" />
          </mxGeometry>
        </mxCell>
        <mxCell id="Dn_3NnZCM7g7BvhpWIRL-159" value="&lt;b&gt;&lt;u&gt;&lt;font style=&quot;font-size: 15px;&quot;&gt;DrCode&lt;/font&gt;&lt;/u&gt;&lt;/b&gt;" style="shape=partialRectangle;html=1;whiteSpace=wrap;connectable=0;strokeColor=inherit;overflow=hidden;fillColor=none;top=0;left=0;bottom=0;right=0;pointerEvents=1;" parent="Dn_3NnZCM7g7BvhpWIRL-157" vertex="1">
          <mxGeometry x="141" width="138" height="40" as="geometry">
            <mxRectangle width="138" height="40" as="alternateBounds" />
          </mxGeometry>
        </mxCell>
        <mxCell id="Dn_3NnZCM7g7BvhpWIRL-160" value="&lt;b style=&quot;border-color: var(--border-color); font-size: 24px;&quot;&gt;DoctorPhone&lt;/b&gt;&lt;span style=&quot;font-size: 24px;&quot;&gt;&lt;b&gt;&lt;br&gt;&lt;/b&gt;&lt;/span&gt;" style="text;html=1;align=center;verticalAlign=middle;resizable=0;points=[];autosize=1;strokeColor=none;fillColor=none;" parent="1" vertex="1">
          <mxGeometry x="-370" y="299.99991643685286" width="170" height="40" as="geometry" />
        </mxCell>
        <mxCell id="Dn_3NnZCM7g7BvhpWIRL-161" value="" style="endArrow=classic;html=1;rounded=0;exitX=0.745;exitY=-0.097;exitDx=0;exitDy=0;exitPerimeter=0;entryX=-0.002;entryY=0.882;entryDx=0;entryDy=0;entryPerimeter=0;" parent="1" source="Dn_3NnZCM7g7BvhpWIRL-157" target="Dn_3NnZCM7g7BvhpWIRL-120" edge="1">
          <mxGeometry width="50" height="50" relative="1" as="geometry">
            <mxPoint x="260" y="250" as="sourcePoint" />
            <mxPoint x="10" y="490" as="targetPoint" />
            <Array as="points">
              <mxPoint x="258" y="260" />
              <mxPoint x="-10" y="260" />
              <mxPoint x="-10" y="470" />
            </Array>
          </mxGeometry>
        </mxCell>
        <mxCell id="Dn_3NnZCM7g7BvhpWIRL-162" value="" style="shape=table;startSize=0;container=1;collapsible=0;childLayout=tableLayout;" parent="1" vertex="1">
          <mxGeometry x="50" y="170" width="279" height="40" as="geometry" />
        </mxCell>
        <mxCell id="Dn_3NnZCM7g7BvhpWIRL-163" value="" style="shape=tableRow;horizontal=0;startSize=0;swimlaneHead=0;swimlaneBody=0;strokeColor=inherit;top=0;left=0;bottom=0;right=0;collapsible=0;dropTarget=0;fillColor=none;points=[[0,0.5],[1,0.5]];portConstraint=eastwest;" parent="Dn_3NnZCM7g7BvhpWIRL-162" vertex="1">
          <mxGeometry width="279" height="40" as="geometry" />
        </mxCell>
        <mxCell id="Dn_3NnZCM7g7BvhpWIRL-164" value="&lt;b&gt;&lt;u&gt;&lt;font style=&quot;font-size: 15px;&quot;&gt;EPhone&lt;/font&gt;&lt;/u&gt;&lt;/b&gt;" style="shape=partialRectangle;html=1;whiteSpace=wrap;connectable=0;strokeColor=inherit;overflow=hidden;fillColor=none;top=0;left=0;bottom=0;right=0;pointerEvents=1;" parent="Dn_3NnZCM7g7BvhpWIRL-163" vertex="1">
          <mxGeometry width="141" height="40" as="geometry">
            <mxRectangle width="141" height="40" as="alternateBounds" />
          </mxGeometry>
        </mxCell>
        <mxCell id="Dn_3NnZCM7g7BvhpWIRL-165" value="&lt;b&gt;&lt;u&gt;&lt;font style=&quot;font-size: 15px;&quot;&gt;NurseCode&lt;/font&gt;&lt;/u&gt;&lt;/b&gt;" style="shape=partialRectangle;html=1;whiteSpace=wrap;connectable=0;strokeColor=inherit;overflow=hidden;fillColor=none;top=0;left=0;bottom=0;right=0;pointerEvents=1;" parent="Dn_3NnZCM7g7BvhpWIRL-163" vertex="1">
          <mxGeometry x="141" width="138" height="40" as="geometry">
            <mxRectangle width="138" height="40" as="alternateBounds" />
          </mxGeometry>
        </mxCell>
        <mxCell id="Dn_3NnZCM7g7BvhpWIRL-166" value="&lt;b&gt;&lt;font style=&quot;font-size: 24px;&quot;&gt;NursePhone&lt;/font&gt;&lt;/b&gt;" style="text;html=1;align=center;verticalAlign=middle;resizable=0;points=[];autosize=1;strokeColor=none;fillColor=none;" parent="1" vertex="1">
          <mxGeometry x="-360" y="170" width="160" height="40" as="geometry" />
        </mxCell>
        <mxCell id="Dn_3NnZCM7g7BvhpWIRL-167" value="" style="endArrow=classic;html=1;rounded=0;entryX=0;entryY=0.875;entryDx=0;entryDy=0;entryPerimeter=0;exitX=0.716;exitY=-0.044;exitDx=0;exitDy=0;exitPerimeter=0;" parent="1" source="Dn_3NnZCM7g7BvhpWIRL-163" target="Dn_3NnZCM7g7BvhpWIRL-2" edge="1">
          <mxGeometry width="50" height="50" relative="1" as="geometry">
            <mxPoint x="250" y="160" as="sourcePoint" />
            <mxPoint x="40" y="590" as="targetPoint" />
            <Array as="points">
              <mxPoint x="250" y="120" />
              <mxPoint x="-120" y="120" />
              <mxPoint x="-120" y="590" />
            </Array>
          </mxGeometry>
        </mxCell>
        <mxCell id="Dn_3NnZCM7g7BvhpWIRL-168" value="" style="endArrow=classic;html=1;rounded=0;exitX=0.749;exitY=-0.106;exitDx=0;exitDy=0;exitPerimeter=0;" parent="1" source="Dn_3NnZCM7g7BvhpWIRL-87" edge="1">
          <mxGeometry width="50" height="50" relative="1" as="geometry">
            <mxPoint x="680" y="1490" as="sourcePoint" />
            <mxPoint x="690" y="1090" as="targetPoint" />
            <Array as="points">
              <mxPoint x="680" y="1490" />
              <mxPoint x="1890" y="1490" />
              <mxPoint x="1890" y="1130" />
              <mxPoint x="690" y="1130" />
            </Array>
          </mxGeometry>
        </mxCell>
        <mxCell id="Dn_3NnZCM7g7BvhpWIRL-169" value="" style="endArrow=classic;html=1;rounded=0;entryX=0.052;entryY=-0.156;entryDx=0;entryDy=0;entryPerimeter=0;exitX=0.508;exitY=-0.05;exitDx=0;exitDy=0;exitPerimeter=0;" parent="1" source="Dn_3NnZCM7g7BvhpWIRL-31" target="Dn_3NnZCM7g7BvhpWIRL-120" edge="1">
          <mxGeometry width="50" height="50" relative="1" as="geometry">
            <mxPoint x="550" y="1160" as="sourcePoint" />
            <mxPoint x="122" y="443" as="targetPoint" />
            <Array as="points">
              <mxPoint x="550" y="1140" />
              <mxPoint x="1780" y="1140" />
              <mxPoint x="1780" y="380" />
              <mxPoint x="130" y="380" />
            </Array>
          </mxGeometry>
        </mxCell>
        <mxCell id="Dn_3NnZCM7g7BvhpWIRL-170" value="" style="shape=table;startSize=0;container=1;collapsible=0;childLayout=tableLayout;fontSize=15;flipV=0;" parent="1" vertex="1">
          <mxGeometry x="890" y="1515" width="280" height="40" as="geometry" />
        </mxCell>
        <mxCell id="Dn_3NnZCM7g7BvhpWIRL-171" value="" style="shape=tableRow;horizontal=0;startSize=0;swimlaneHead=0;swimlaneBody=0;strokeColor=inherit;top=0;left=0;bottom=0;right=0;collapsible=0;dropTarget=0;fillColor=none;points=[[0,0.5],[1,0.5]];portConstraint=eastwest;fontSize=15;" parent="Dn_3NnZCM7g7BvhpWIRL-170" vertex="1">
          <mxGeometry width="280" height="40" as="geometry" />
        </mxCell>
        <mxCell id="Dn_3NnZCM7g7BvhpWIRL-172" value="&lt;b style=&quot;font-size: 15px;&quot;&gt;&lt;u style=&quot;font-size: 15px;&quot;&gt;DATETIME&lt;/u&gt;&lt;/b&gt;" style="shape=partialRectangle;html=1;whiteSpace=wrap;connectable=0;strokeColor=inherit;overflow=hidden;fillColor=none;top=0;left=0;bottom=0;right=0;pointerEvents=1;fontSize=15;" parent="Dn_3NnZCM7g7BvhpWIRL-171" vertex="1">
          <mxGeometry width="140" height="40" as="geometry">
            <mxRectangle width="140" height="40" as="alternateBounds" />
          </mxGeometry>
        </mxCell>
        <mxCell id="Dn_3NnZCM7g7BvhpWIRL-173" value="&lt;b&gt;Amount&lt;/b&gt;" style="shape=partialRectangle;html=1;whiteSpace=wrap;connectable=0;strokeColor=inherit;overflow=hidden;fillColor=none;top=0;left=0;bottom=0;right=0;pointerEvents=1;fontSize=15;" parent="Dn_3NnZCM7g7BvhpWIRL-171" vertex="1">
          <mxGeometry x="140" width="140" height="40" as="geometry">
            <mxRectangle width="140" height="40" as="alternateBounds" />
          </mxGeometry>
        </mxCell>
        <mxCell id="_sCT71LYJUG-LRouMYq3-1" value="&lt;b style=&quot;border-color: var(--border-color); font-size: 15px;&quot;&gt;Amount&lt;/b&gt;" style="whiteSpace=wrap;html=1;align=center;" parent="1" vertex="1">
          <mxGeometry x="750" y="1272.91" width="130" height="40" as="geometry" />
        </mxCell>
      </root>
    </mxGraphModel>
  </diagram>
</mxfile>
